<?xml version="1.0" encoding="utf-8"?><svg xmlns="http://www.w3.org/2000/svg" xmlns:xlink="http://www.w3.org/1999/xlink"><symbol viewBox="0 0 17 19" id="attachment" xmlns="http://www.w3.org/2000/svg"><path d="M5.835 18.193c-1.503 0-2.796-.542-3.878-1.624C.874 15.486.332 14.193.332 12.69.31 11.166.841 9.862 1.923 8.78l7.425-7.425c.773-.773 1.724-1.15 2.85-1.127 1.105 0 2.044.387 2.818 1.16.773.773 1.16 1.713 1.16 2.817 0 1.105-.387 2.044-1.16 2.818l-6 6a2.516 2.516 0 01-1.756.761c-.707 0-1.304-.243-1.79-.729s-.73-1.082-.73-1.79c0-.707.244-1.303.73-1.79l4.59-4.59a1.008 1.008 0 011.426 1.425l-4.657 4.657c-.199.199-.177.42.066.663.221.221.431.232.63.033l6.066-6.065c.375-.376.574-.84.596-1.393 0-.574-.188-1.05-.563-1.425-.376-.375-.85-.563-1.426-.563-.574 0-1.05.188-1.425.563L3.35 10.205a3.386 3.386 0 00-1.03 2.485c0 .972.343 1.8 1.028 2.486a3.386 3.386 0 002.486 1.027c.95-.022 1.767-.376 2.452-1.06l6.016-6.016a1.008 1.008 0 111.425 1.425l-6.015 6.016c-1.083 1.082-2.376 1.624-3.878 1.624z"/></symbol><symbol viewBox="0 0 16 22" id="autorenew" xmlns="http://www.w3.org/2000/svg"><path fill-rule="evenodd" clip-rule="evenodd" d="M8 8V5a6.005 6.005 0 00-5.62 8.098c.161.429.098.924-.226 1.248-.469.469-1.255.381-1.516-.228A7.908 7.908 0 010 11c0-4.42 3.58-8 8-8V0l4 4-4 4zm5.841-.341c.471-.471 1.262-.383 1.524.23.407.954.635 2.005.635 3.111 0 4.42-3.58 8-8 8v3l-4-4 4-4v3c3.31 0 6-2.69 6-6 0-.74-.14-1.447-.387-2.102-.16-.426-.094-.917.228-1.24z"/></symbol><symbol viewBox="0 0 18 18" id="catalog2" xmlns="http://www.w3.org/2000/svg"><path fill-rule="evenodd" clip-rule="evenodd" d="M0 0h4v4H0V0zm7 0h4v4H7V0zm11 0h-4v4h4V0zM0 7h4v4H0V7zm11 0H7v4h4V7zm3 0h4v4h-4V7zM4 14H0v4h4v-4zm3 0h4v4H7v-4zm11 0h-4v4h4v-4z"/></symbol><symbol viewBox="0 0 12 9" id="check-ok" xmlns="http://www.w3.org/2000/svg"><path fill-rule="evenodd" clip-rule="evenodd" d="M10.914.293a1 1 0 010 1.414l-6.207 6.5a1 1 0 01-1.414 0l-3-3a1 1 0 111.414-1.414L4 6.086 9.5.293a1 1 0 011.414 0z"/></symbol><symbol viewBox="0 0 18 12" id="china" xmlns="http://www.w3.org/2000/svg"><path d="M0 0h18v12H0z"/><path d="M3 1l.449 1.382h1.453l-1.175.854.449 1.382L3 3.764l-1.176.854.45-1.382-1.176-.854H2.55L3 1z"/><circle cx="5.5" cy="1.5" r=".5"/><circle cx="6.5" cy="3.5" r=".5"/><circle cx="5.5" cy="5.5" r=".5"/></symbol><symbol viewBox="0 0 48 48" id="circle-phone" xmlns="http://www.w3.org/2000/svg"><circle cx="24" cy="24" r="23.5"/><circle cx="24" cy="24" r="23.5"/><circle cx="24" cy="24" r="23.5"/><path d="M32 27.98v2.408a1.604 1.604 0 01-1.094 1.527 1.613 1.613 0 01-.66.079 15.941 15.941 0 01-6.943-2.465 15.672 15.672 0 01-4.827-4.818 15.868 15.868 0 01-2.47-6.96 1.603 1.603 0 01.953-1.614 1.61 1.61 0 01.648-.137h2.414a1.61 1.61 0 011.609 1.381c.102.77.29 1.528.563 2.256a1.602 1.602 0 01-.362 1.694l-1.022 1.02a12.86 12.86 0 004.827 4.817l1.022-1.02a1.61 1.61 0 011.697-.36c.73.271 1.488.46 2.26.561A1.61 1.61 0 0132 27.98z"/><path d="M32 27.98v2.408a1.604 1.604 0 01-1.094 1.527 1.613 1.613 0 01-.66.079 15.941 15.941 0 01-6.943-2.465 15.672 15.672 0 01-4.827-4.818 15.868 15.868 0 01-2.47-6.96 1.603 1.603 0 01.953-1.614 1.61 1.61 0 01.648-.137h2.414a1.61 1.61 0 011.609 1.381c.102.77.29 1.528.563 2.256a1.602 1.602 0 01-.362 1.694l-1.022 1.02a12.86 12.86 0 004.827 4.817l1.022-1.02a1.61 1.61 0 011.697-.36c.73.271 1.488.46 2.26.561A1.61 1.61 0 0132 27.98z"/></symbol><symbol viewBox="0 0 18 18" id="clock" xmlns="http://www.w3.org/2000/svg"><path fill-rule="evenodd" clip-rule="evenodd" d="M9 1.636a7.364 7.364 0 100 14.728A7.364 7.364 0 009 1.636zM0 9a9 9 0 1118 0A9 9 0 010 9z"/><path fill-rule="evenodd" clip-rule="evenodd" d="M9 1.636a7.364 7.364 0 100 14.728A7.364 7.364 0 009 1.636zM0 9a9 9 0 1118 0A9 9 0 010 9z"/><path fill-rule="evenodd" clip-rule="evenodd" d="M9 3.273c.452 0 .818.366.818.818v4.403l2.82 1.41a.818.818 0 11-.731 1.464L8.634 9.732A.818.818 0 018.182 9V4.09c0-.451.366-.817.818-.817z"/><path fill-rule="evenodd" clip-rule="evenodd" d="M9 3.273c.452 0 .818.366.818.818v4.403l2.82 1.41a.818.818 0 11-.731 1.464L8.634 9.732A.818.818 0 018.182 9V4.09c0-.451.366-.817.818-.817z"/></symbol><symbol viewBox="0 0 24 24" id="earth" xmlns="http://www.w3.org/2000/svg"><path fill-rule="evenodd" clip-rule="evenodd" d="M12 2C6.48 2 2 6.48 2 12s4.48 10 10 10 10-4.48 10-10S17.52 2 12 2zM4 12c0-.61.08-1.21.21-1.78L8.99 15v1c0 1.1.9 2 2 2v1.93C7.06 19.43 4 16.07 4 12zm11.99 4c.9 0 1.64.59 1.9 1.4A7.991 7.991 0 0020 12c0-3.35-2.08-6.23-5.01-7.41V5c0 1.1-.9 2-2 2h-2v2c0 .55-.45 1-1 1h-2v2h6c.55 0 1 .45 1 1v3h1z"/></symbol><symbol viewBox="0 0 8 6" id="expand_more" xmlns="http://www.w3.org/2000/svg"><path d="M7.063.719L8 1.656l-4 4-4-4L.938.72 4 3.78 7.063.72z"/></symbol><symbol viewBox="0 0 12 8" id="expand_more_brs" xmlns="http://www.w3.org/2000/svg"><path d="M9.89 1.281a.994.994 0 011.407 1.407L6 7.984.703 2.688A.994.994 0 112.11 1.28L6 5.171l3.89-3.89z"/></symbol><symbol viewBox="0 0 23 21" id="favourites" xmlns="http://www.w3.org/2000/svg"><path fill-rule="evenodd" clip-rule="evenodd" d="M13.913.495A6.5 6.5 0 0120.998 11.1l-8.84 8.84a1 1 0 01-1.414 0l-8.84-8.84a6.501 6.501 0 119.194-9.194l.353.353.353-.353a6.502 6.502 0 012.11-1.41zM16.401 2a4.5 4.5 0 00-3.182 1.319l-1.06 1.06a1 1 0 01-1.415 0l-1.06-1.06a4.501 4.501 0 10-6.366 6.366l8.133 8.133 8.133-8.133A4.501 4.501 0 0016.401 2z"/></symbol><symbol viewBox="0 0 40 40" id="fb" xmlns="http://www.w3.org/2000/svg"><path fill-rule="evenodd" clip-rule="evenodd" d="M20 40c11.046 0 20-8.954 20-20S31.046 0 20 0 0 8.954 0 20s8.954 20 20 20zm-2.032-10v-8.75H15v-3.62h2.968v-2.758c0-3.138 1.744-4.872 4.416-4.872 1.278 0 2.616.245 2.616.245v3.081h-1.475c-1.452 0-1.904.966-1.904 1.957v2.347h3.242l-.518 3.62H21.62V30h-3.653z"/></symbol><symbol viewBox="0 0 16 10" id="filter" xmlns="http://www.w3.org/2000/svg"><path fill-rule="evenodd" clip-rule="evenodd" d="M2 0h4v1h9a1 1 0 110 2H6v1H2V3H1a1 1 0 010-2h1V0zM1 7a1 1 0 000 2h9v1h4V9h1a1 1 0 100-2h-1V6h-4v1H1z"/></symbol><symbol viewBox="0 0 18 12" id="germany" xmlns="http://www.w3.org/2000/svg"><path d="M0 0h18v4H0zM0 8h18v4H0zM0 4h18v4H0z"/></symbol><symbol viewBox="0 0 40 40" id="insta" xmlns="http://www.w3.org/2000/svg"><path fill-rule="evenodd" clip-rule="evenodd" d="M20 40c11.046 0 20-8.954 20-20S31.046 0 20 0 0 8.954 0 20s8.954 20 20 20zm-6-28a2 2 0 00-2 2v3h4a4.993 4.993 0 014-2c1.636 0 3.088.786 4 2h4v-3a2 2 0 00-2-2H14zm14 7h-3.1a5 5 0 11-9.8 0H12v7a2 2 0 002 2h12a2 2 0 002-2v-7zm-11 1a3 3 0 116 0 3 3 0 01-6 0zm10-5.5a1.5 1.5 0 11-3 0 1.5 1.5 0 013 0z"/></symbol><symbol viewBox="0 0 18 12" id="italy" xmlns="http://www.w3.org/2000/svg"><path d="M0 0h6v12H0zM6 0h6v12H6zM12 0h6v12h-6z"/></symbol><symbol viewBox="0 0 348 30" id="logo" xmlns="http://www.w3.org/2000/svg"><path d="M5.815.484c.484 0 .726.242.726.726v11.612L18.655.969c.485-.242.727-.484 1.454-.484h6.541c.485 0 .727.484.242.726l-12.84 12.096 13.567 15.726c.242.484.242.726-.242.726h-6.541c-.485 0-.97-.242-1.454-.484l-9.933-12.34-3.15 2.42v9.677c0 .484-.242.726-.727.726H.727c-.485 0-.727-.242-.727-.726V1.21C0 .726.242.484.727.484h5.088zm52.574 0c.484 0 .727.242.727.726v4.354c0 .484-.243.726-.727.726H42.157v5.565H56.45c.484 0 .727.242.727.726v4.354c0 .484-.243.726-.727.726H42.157v6.29h16.716c.485 0 .727.242.727.726v4.355c0 .484-.242.726-.727.726H36.584c-.484 0-.727-.242-.727-.726V1.21c0-.484.485-.726.727-.726H58.39zm25.438 15.484c3.392 0 5.088-1.936 5.088-4.839 0-2.903-1.938-4.839-5.088-4.839h-7.752v9.678h7.752zm0-15.484c6.542 0 11.387 4.597 11.387 10.645 0 6.29-4.845 10.887-11.387 10.887h-7.752v7.016c0 .484-.243.726-.727.726h-4.846c-.484 0-.727-.242-.727-.726V1.21c0-.484.243-.726.727-.726h13.325zm24.469 17.903h10.176L113.626 6.29h-.484l-4.846 12.097zm12.356 5.564h-14.778l-1.939 5.081c-.242.484-.484.726-.969.726h-5.33c-.484 0-.727-.242-.484-.726L109.75.968c0-.242.484-.484.727-.484h6.057c.242 0 .484.242.727.484l12.113 28.064c.242.484 0 .968-.484.968h-5.088c-.485 0-.969-.242-1.212-.726l-1.938-5.323zM169.107.484c.485 0 .727.242.727.726v27.822c0 .484-.242.726-.727.726h-4.845c-.485 0-.727-.242-.727-.726V18.387l.242-7.984h-.242l-4.361 11.13-3.392 7.741c-.242.242-.484.484-.969.484h-3.392c-.484 0-.727-.242-.969-.484l-3.149-7.742-4.361-11.129h-.243l.243 7.984v10.645c0 .484-.243.726-.727.726h-4.603c-.485 0-.727-.242-.727-.726V1.21c0-.484.242-.726.727-.726h6.299c.484 0 .726.242.969.484l4.361 9.919 4.361 10.887h.242l4.361-10.887 4.119-9.92c.242-.241.484-.483.969-.483h5.814zm15.262 14.758c0 5.322 3.877 9.194 9.207 9.194 5.33 0 9.206-3.872 9.206-9.194 0-5.323-3.876-9.194-9.206-9.194-5.572-.242-9.207 3.63-9.207 9.194zM193.576 0c8.479 0 15.505 6.532 15.505 15 0 8.71-7.026 15-15.505 15-8.48 0-15.506-6.532-15.506-15s6.784-15 15.506-15zm46.033.484c.484 0 .727.242.727.726v4.354c0 .484-.243.726-.727.726h-9.449v22.742c0 .484-.242.726-.727.726h-4.845c-.485 0-.727-.242-.727-.726V6.29h-9.449c-.484 0-.726-.242-.726-.726V1.21c0-.484.242-.726.726-.726h25.197zm31.253 0c.484 0 .726.242.726.726v4.354c0 .484-.242.726-.726.726h-16.233v5.565h14.294c.485 0 .727.242.727.726v4.354c0 .484-.242.726-.727.726h-14.294v6.29h16.717c.485 0 .727.242.727.726v4.355c0 .484-.242.726-.727.726h-22.289c-.485 0-.727-.242-.727-.726V1.21c0-.484.485-.726.727-.726h21.805zm16.716 0c.485 0 .727.242.727.726v11.612L300.419.969c.484-.242.727-.484 1.453-.484h6.542c.484 0 .727.484.242.726l-12.84 12.096 13.567 15.726c.242.484.242.726-.242.726h-6.542c-.484 0-.969-.242-1.453-.484l-9.934-12.339-3.149 2.42v9.677c0 .484-.243.726-.727.726h-4.846c-.484 0-.726-.242-.726-.726V1.21c0-.484.242-.726.726-.726h5.088zm39.25 17.903h10.175L332.158 6.29h-.485l-4.845 12.097zm12.356 5.564h-14.779l-1.938 5.081c-.243.484-.485.726-.969.726h-5.33c-.485 0-.727-.242-.485-.726L328.281.968c0-.242.485-.484.727-.484h6.057c.242 0 .484.242.727.484l12.113 28.064c.243.484 0 .968-.484.968h-5.088c-.485 0-.969-.242-1.211-.726l-1.938-5.323z"/></symbol><symbol viewBox="0 0 24 24" id="map-marker" xmlns="http://www.w3.org/2000/svg"><path fill-rule="evenodd" clip-rule="evenodd" d="M12 3.667a6.273 6.273 0 00-4.525 1.952A6.81 6.81 0 005.6 10.333c0 2.582 1.613 5.087 3.38 7.031a23.918 23.918 0 003.02 2.78 23.915 23.915 0 003.02-2.78c1.767-1.944 3.38-4.449 3.38-7.03a6.81 6.81 0 00-1.874-4.715A6.273 6.273 0 0012 3.667zm0 17.5l-.444.693-.002-.002-.006-.003-.018-.013a15.014 15.014 0 01-.308-.226 25.54 25.54 0 01-3.403-3.105C5.987 16.497 4 13.585 4 10.333c0-2.21.843-4.33 2.343-5.892C7.843 2.878 9.878 2 12 2s4.157.878 5.657 2.44C19.157 6.005 20 8.124 20 10.334c0 3.252-1.987 6.164-3.82 8.178a25.545 25.545 0 01-3.402 3.105 15.235 15.235 0 01-.308.226l-.018.013-.005.003-.002.002-.445-.693zm0 0l.444.693a.774.774 0 01-.888 0l.444-.693z"/><path fill-rule="evenodd" clip-rule="evenodd" d="M12 3.667a6.273 6.273 0 00-4.525 1.952A6.81 6.81 0 005.6 10.333c0 2.582 1.613 5.087 3.38 7.031a23.918 23.918 0 003.02 2.78 23.915 23.915 0 003.02-2.78c1.767-1.944 3.38-4.449 3.38-7.03a6.81 6.81 0 00-1.874-4.715A6.273 6.273 0 0012 3.667zm0 17.5l-.444.693-.002-.002-.006-.003-.018-.013a15.014 15.014 0 01-.308-.226 25.54 25.54 0 01-3.403-3.105C5.987 16.497 4 13.585 4 10.333c0-2.21.843-4.33 2.343-5.892C7.843 2.878 9.878 2 12 2s4.157.878 5.657 2.44C19.157 6.005 20 8.124 20 10.334c0 3.252-1.987 6.164-3.82 8.178a25.545 25.545 0 01-3.402 3.105 15.235 15.235 0 01-.308.226l-.018.013-.005.003-.002.002-.445-.693zm0 0l.444.693a.774.774 0 01-.888 0l.444-.693z"/><path fill-rule="evenodd" clip-rule="evenodd" d="M12 8a2 2 0 100 4 2 2 0 000-4zm-4 2a4 4 0 118 0 4 4 0 01-8 0z"/><path fill-rule="evenodd" clip-rule="evenodd" d="M12 8a2 2 0 100 4 2 2 0 000-4zm-4 2a4 4 0 118 0 4 4 0 01-8 0z"/></symbol><symbol viewBox="0 0 24 24" id="pdf" xmlns="http://www.w3.org/2000/svg"><path fill-rule="evenodd" clip-rule="evenodd" d="M6 2h8l6 6v12c0 1.1-.9 2-2 2H5.99C4.89 22 4 21.1 4 20l.01-16c0-1.1.89-2 1.99-2zm0 2v16h12V9h-5V4H6z"/><path fill-rule="evenodd" clip-rule="evenodd" d="M8 14h1c.55 0 1-.45 1-1v-1c0-.55-.45-1-1-1H7v5h1v-2zm6 1v-3c0-.55-.45-1-1-1h-2v5h2c.55 0 1-.45 1-1zm-2-3h1v3h-1v-3zm5 2h-1v2h-1v-5h2v1h-1v1h1v1zm-8-2H8v1h1v-1z"/></symbol><symbol viewBox="0 0 24 24" id="phone" xmlns="http://www.w3.org/2000/svg"><path d="M20 15.98v2.408a1.604 1.604 0 01-1.094 1.527 1.613 1.613 0 01-.66.079 15.941 15.941 0 01-6.943-2.465 15.672 15.672 0 01-4.827-4.818 15.868 15.868 0 01-2.47-6.96 1.603 1.603 0 01.953-1.614c.204-.09.425-.137.648-.137h2.414A1.61 1.61 0 019.63 5.381c.102.77.29 1.528.563 2.256a1.602 1.602 0 01-.362 1.694l-1.022 1.02a12.86 12.86 0 004.827 4.817l1.022-1.02a1.61 1.61 0 011.697-.36c.73.271 1.488.46 2.26.561A1.61 1.61 0 0120 15.98z"/><path d="M20 15.98v2.408a1.604 1.604 0 01-1.094 1.527 1.613 1.613 0 01-.66.079 15.941 15.941 0 01-6.943-2.465 15.672 15.672 0 01-4.827-4.818 15.868 15.868 0 01-2.47-6.96 1.603 1.603 0 01.953-1.614c.204-.09.425-.137.648-.137h2.414A1.61 1.61 0 019.63 5.381c.102.77.29 1.528.563 2.256a1.602 1.602 0 01-.362 1.694l-1.022 1.02a12.86 12.86 0 004.827 4.817l1.022-1.02a1.61 1.61 0 011.697-.36c.73.271 1.488.46 2.26.561A1.61 1.61 0 0120 15.98z"/></symbol><symbol viewBox="0 0 24 24" id="phone-o" xmlns="http://www.w3.org/2000/svg"><path d="M22.001 16.92v3a2 2 0 01-2.18 2 19.79 19.79 0 01-8.63-3.07 19.5 19.5 0 01-6-6 19.79 19.79 0 01-3.07-8.67A2 2 0 014.111 2h3a2 2 0 012 1.72c.127.96.362 1.903.7 2.81a2 2 0 01-.45 2.11l-1.27 1.27a16 16 0 006 6l1.27-1.27a2 2 0 012.11-.45c.908.339 1.85.574 2.81.7a2 2 0 011.72 2.03z"/></symbol><symbol viewBox="0 0 18 12" id="portugal" xmlns="http://www.w3.org/2000/svg"><path d="M7 0h11v12H7zM0 0h7v12H0z"/><circle cx="7" cy="6" r="2.75"/><path d="M5.5 4h3v2.5a1.5 1.5 0 11-3 0V4z"/><path d="M5.6 4.1h2.8v2.4a1.4 1.4 0 11-2.8 0V4.1z"/><path d="M6 5h2v1a1 1 0 01-2 0V5z"/><rect x="6.5" y="5.5" width="1" height="1" rx=".5"/></symbol><symbol viewBox="0 0 17 20" id="refresh" xmlns="http://www.w3.org/2000/svg"><path d="M7.676 3.312L7.534 0 2.78 5.18l5.18 4.755-.196-4.57c1.678-.072 3.115.44 4.313 1.54 1.22 1.12 1.866 2.518 1.938 4.196.07 1.633-.454 3.06-1.574 4.28-1.12 1.221-2.507 1.878-4.162 1.971-1.656.05-3.095-.486-4.315-1.606-.967-.887-1.588-1.944-1.862-3.171a5.867 5.867 0 01.376-3.6L.958 7.582c-.86 1.586-1.141 3.279-.843 5.08.299 1.8 1.127 3.324 2.486 4.57 1.612 1.48 3.521 2.171 5.73 2.076 2.207-.094 4.06-.96 5.56-2.594 1.5-1.635 2.203-3.556 2.109-5.764-.095-2.207-.949-4.05-2.56-5.53-1.635-1.5-3.556-2.202-5.764-2.107z"/></symbol><symbol viewBox="0 0 24 24" id="renew" xmlns="http://www.w3.org/2000/svg"><path fill-rule="evenodd" clip-rule="evenodd" d="M12 9V6a6.005 6.005 0 00-5.62 8.098c.161.429.098.924-.226 1.248-.469.469-1.255.381-1.516-.228A7.908 7.908 0 014 12c0-4.42 3.58-8 8-8V1l4 4-4 4zm5.841-.341c.471-.471 1.262-.383 1.524.23.407.954.635 2.005.635 3.111 0 4.42-3.58 8-8 8v3l-4-4 4-4v3c3.31 0 6-2.69 6-6 0-.74-.14-1.447-.387-2.102-.16-.426-.094-.917.228-1.24z"/></symbol><symbol viewBox="0 0 24 24" id="rub" xmlns="http://www.w3.org/2000/svg"><path d="M13.222 15.12h-2.29V17H9.626v-1.88H8.211v-1.08h1.415v-.936H8.211V12.03h1.415V7.047h3.67c1.067 0 1.913.271 2.537.813.624.543.937 1.276.937 2.202 0 .97-.301 1.72-.903 2.248-.597.525-1.447.789-2.55.793h-2.385v.937h2.29v1.08zm-2.29-3.09h2.365c.706 0 1.244-.166 1.613-.499.37-.332.554-.818.554-1.456 0-.579-.191-1.046-.574-1.401-.383-.36-.9-.542-1.552-.547h-2.406v3.903z"/><circle cx="12" cy="12" r="9"/></symbol><symbol viewBox="0 0 24 24" id="rubl" xmlns="http://www.w3.org/2000/svg"><path d="M13.222 15.12h-2.29V17H9.626v-1.88H8.211v-1.08h1.415v-.936H8.211V12.03h1.415V7.047h3.67c1.067 0 1.913.271 2.537.813.624.543.937 1.276.937 2.202 0 .97-.301 1.72-.903 2.248-.597.525-1.447.789-2.55.793h-2.385v.937h2.29v1.08zm-2.29-3.09h2.365c.706 0 1.244-.166 1.613-.499.37-.332.554-.818.554-1.456 0-.579-.191-1.046-.574-1.401-.383-.36-.9-.542-1.552-.547h-2.406v3.903z"/><circle cx="12" cy="12" r="9"/></symbol><symbol viewBox="0 0 18 12" id="russia" xmlns="http://www.w3.org/2000/svg"><path d="M0 0h18v4H0zM0 8h18v4H0zM0 4h18v4H0z"/><path d="M.25.25h17.5v11.5H.25z"/></symbol><symbol viewBox="0 0 16 16" id="search" xmlns="http://www.w3.org/2000/svg"><path fill-rule="evenodd" clip-rule="evenodd" d="M6.666 1.333a4.667 4.667 0 100 9.334 4.667 4.667 0 000-9.334zM.666 6a6 6 0 1112 0 6 6 0 01-12 0z"/><path fill-rule="evenodd" clip-rule="evenodd" d="M10.245 9.58a.84.84 0 011.188 0l4.125 4.124a.84.84 0 01-1.188 1.188l-4.125-4.125a.84.84 0 010-1.188z"/></symbol><symbol viewBox="0 0 12 12" id="search-clear" xmlns="http://www.w3.org/2000/svg"><path d="M11.234.766a.829.829 0 010 1.171L7.172 6l4.062 4.063a.829.829 0 01-1.171 1.171L6 7.172l-4.063 4.062a.829.829 0 11-1.171-1.171L4.828 6 .766 1.937A.829.829 0 111.937.766L6 4.828 10.063.766a.829.829 0 011.171 0z"/></symbol><symbol viewBox="0 0 24 24" id="shopping-cart" xmlns="http://www.w3.org/2000/svg"><g clip-path="url(#bdclip0)"><path fill-rule="evenodd" clip-rule="evenodd" d="M1 0a1 1 0 100 2h3.18l.832 4.155c.004.029.01.057.017.084l1.67 8.347A3 3 0 009.69 17h9.702a3 3 0 002.99-2.415l1.601-8.398A1 1 0 0023 5H6.82L5.98.804A1 1 0 005 0H1zm7.66 14.195L7.22 7h14.571l-1.372 7.198a1 1 0 01-1 .802H9.66a1 1 0 01-1-.805z"/><path d="M7 21a2 2 0 114 0 2 2 0 01-4 0zm11 0a2 2 0 114 0 2 2 0 01-4 0z"/></g><defs><clipPath id="bdclip0"><path d="M0 0h24v24H0z"/></clipPath></defs></symbol><symbol viewBox="0 0 18 12" id="spain" xmlns="http://www.w3.org/2000/svg"><path d="M0 0h18v3H0zm0 9h18v3H0zM0 3h18v6H0z"/><rect x="2" y="4" width="4" height="4" rx="1"/></symbol></svg>