<?xml version="1.0" encoding="utf-8"?><svg xmlns="http://www.w3.org/2000/svg" xmlns:xlink="http://www.w3.org/1999/xlink"><symbol viewBox="0 0 17 19" id="attachment" xmlns="http://www.w3.org/2000/svg"><path d="M5.835 18.193c-1.503 0-2.796-.542-3.878-1.624C.874 15.486.332 14.193.332 12.69.31 11.166.841 9.862 1.923 8.78l7.425-7.425c.773-.773 1.724-1.15 2.85-1.127 1.105 0 2.044.387 2.818 1.16.773.773 1.16 1.713 1.16 2.817 0 1.105-.387 2.044-1.16 2.818l-6 6a2.516 2.516 0 01-1.756.761c-.707 0-1.304-.243-1.79-.729s-.73-1.082-.73-1.79c0-.707.244-1.303.73-1.79l4.59-4.59a1.008 1.008 0 011.426 1.425l-4.657 4.657c-.199.199-.177.42.066.663.221.221.431.232.63.033l6.066-6.065c.375-.376.574-.84.596-1.393 0-.574-.188-1.05-.563-1.425-.376-.375-.85-.563-1.426-.563-.574 0-1.05.188-1.425.563L3.35 10.205a3.386 3.386 0 00-1.03 2.485c0 .972.343 1.8 1.028 2.486a3.386 3.386 0 002.486 1.027c.95-.022 1.767-.376 2.452-1.06l6.016-6.016a1.008 1.008 0 111.425 1.425l-6.015 6.016c-1.083 1.082-2.376 1.624-3.878 1.624z"/></symbol><symbol viewBox="0 0 16 22" id="autorenew" xmlns="http://www.w3.org/2000/svg"><path fill-rule="evenodd" clip-rule="evenodd" d="M8 8V5a6.005 6.005 0 00-5.62 8.098c.161.429.098.924-.226 1.248-.469.469-1.255.381-1.516-.228A7.908 7.908 0 010 11c0-4.42 3.58-8 8-8V0l4 4-4 4zm5.841-.341c.471-.471 1.262-.383 1.524.23.407.954.635 2.005.635 3.111 0 4.42-3.58 8-8 8v3l-4-4 4-4v3c3.31 0 6-2.69 6-6 0-.74-.14-1.447-.387-2.102-.16-.426-.094-.917.228-1.24z"/></symbol><symbol viewBox="0 0 18 18" id="catalog2" xmlns="http://www.w3.org/2000/svg"><path fill-rule="evenodd" clip-rule="evenodd" d="M0 0h4v4H0V0zm7 0h4v4H7V0zm11 0h-4v4h4V0zM0 7h4v4H0V7zm11 0H7v4h4V7zm3 0h4v4h-4V7zM4 14H0v4h4v-4zm3 0h4v4H7v-4zm11 0h-4v4h4v-4z"/></symbol><symbol viewBox="0 0 23 21" id="favourites" xmlns="http://www.w3.org/2000/svg"><path fill-rule="evenodd" clip-rule="evenodd" d="M13.913.495A6.5 6.5 0 0120.998 11.1l-8.84 8.84a1 1 0 01-1.414 0l-8.84-8.84a6.501 6.501 0 119.194-9.194l.353.353.353-.353a6.502 6.502 0 012.11-1.41zM16.401 2a4.5 4.5 0 00-3.182 1.319l-1.06 1.06a1 1 0 01-1.415 0l-1.06-1.06a4.501 4.501 0 10-6.366 6.366l8.133 8.133 8.133-8.133A4.501 4.501 0 0016.401 2z"/></symbol><symbol viewBox="0 0 24 24" id="pdf" xmlns="http://www.w3.org/2000/svg"><path d="M20 20H3V9h17V6h-6V0H0v24h20v-4z"/><path d="M15 0v5h5l-5-5zm9 19v-9H4v9h20zM7 17H6v-1h1v1zm5-2H9v2H8v-5h4v3zm5 1h-1v1h-3v-5h3v1h1v3zm2 1h-1v-5h4v1h-3v1h3v1h-3v2z"/><path d="M11 13H9v1h2v-1zm5 0h-2v3h2v-3z"/></symbol><symbol viewBox="0 0 12 12" id="search-clear" xmlns="http://www.w3.org/2000/svg"><path d="M11.234.766a.829.829 0 010 1.171L7.172 6l4.062 4.063a.829.829 0 01-1.171 1.171L6 7.172l-4.063 4.062a.829.829 0 11-1.171-1.171L4.828 6 .766 1.937A.829.829 0 111.937.766L6 4.828 10.063.766a.829.829 0 011.171 0z"/></symbol><symbol viewBox="0 0 24 24" id="shopping-cart" xmlns="http://www.w3.org/2000/svg"><g clip-path="url(#gclip0)"><path fill-rule="evenodd" clip-rule="evenodd" d="M1 0a1 1 0 100 2h3.18l.832 4.155c.004.029.01.057.017.084l1.67 8.347A3 3 0 009.69 17h9.702a3 3 0 002.99-2.415l1.601-8.398A1 1 0 0023 5H6.82L5.98.804A1 1 0 005 0H1zm7.66 14.195L7.22 7h14.571l-1.372 7.198a1 1 0 01-1 .802H9.66a1 1 0 01-1-.805z"/><path d="M7 21a2 2 0 114 0 2 2 0 01-4 0zm11 0a2 2 0 114 0 2 2 0 01-4 0z"/></g><defs><clipPath id="gclip0"><path d="M0 0h24v24H0z"/></clipPath></defs></symbol></svg>