<?xml version="1.0" encoding="utf-8"?><svg xmlns="http://www.w3.org/2000/svg" xmlns:xlink="http://www.w3.org/1999/xlink"><symbol viewBox="0 0 24 24" id="adress" xmlns="http://www.w3.org/2000/svg"><path fill-rule="evenodd" clip-rule="evenodd" d="M12 1.917c-2.122 0-4.157.807-5.657 2.245C4.843 5.6 4 7.55 4 9.583c0 2.97 2.016 5.85 4.226 8.086A29.03 29.03 0 0012 20.866a29.024 29.024 0 003.774-3.196C17.984 15.432 20 12.551 20 9.582c0-2.033-.843-3.983-2.343-5.42-1.5-1.439-3.535-2.246-5.657-2.246zm0 20.125l-.555.797-.003-.002-.007-.004-.023-.015a13.902 13.902 0 01-.384-.26 31.003 31.003 0 01-4.254-3.571C4.484 16.671 2 13.323 2 9.583c0-2.541 1.054-4.979 2.929-6.776C6.804 1.01 9.348 0 12 0s5.196 1.01 7.071 2.807S22 7.042 22 9.583c0 3.74-2.484 7.088-4.774 9.404a31.008 31.008 0 01-4.556 3.777l-.082.054-.023.015-.007.004-.002.001s-.001.001-.556-.796zm0 0l.555.797a1.037 1.037 0 01-1.11 0l.555-.797z"/><path fill-rule="evenodd" clip-rule="evenodd" d="M12 8a2 2 0 100 4 2 2 0 000-4zm-4 2a4 4 0 118 0 4 4 0 01-8 0z"/></symbol><symbol viewBox="0 0 24 24" id="adv-1" xmlns="http://www.w3.org/2000/svg"><path d="M11.326 22.367h.041L12 23l.633-.633h.04v-.04l9.653-9.662h.041v-.04l.633-.633-.633-.633v-.04h-.04l-9.662-9.654v-.032h-.04L12 1l-.633.633h-.04v.04l-9.662 9.653h-.032v.033L1 12l.633.633v.032h.032l9.661 9.661v.041zM12 14.678a2.679 2.679 0 11.001-5.357A2.679 2.679 0 0112 14.678zm.665 1.282a4.024 4.024 0 003.295-3.295h4.469l-7.764 7.772V15.96zm3.295-4.634a4.024 4.024 0 00-3.295-3.294V3.563l7.764 7.763h-4.47zm-4.634-3.294a4.024 4.024 0 00-3.294 3.294H3.563l7.763-7.763v4.47zm-3.294 4.633a4.024 4.024 0 003.294 3.295v4.469l-7.763-7.764h4.47z"/><path d="M11.326 22.367h.041L12 23l.633-.633h.04v-.04l9.653-9.662h.041v-.04l.633-.633-.633-.633v-.04h-.04l-9.662-9.654v-.032h-.04L12 1l-.633.633h-.04v.04l-9.662 9.653h-.032v.033L1 12l.633.633v.032h.032l9.661 9.661v.041zM12 14.678a2.679 2.679 0 11.001-5.357A2.679 2.679 0 0112 14.678zm.665 1.282a4.024 4.024 0 003.295-3.295h4.469l-7.764 7.772V15.96zm3.295-4.634a4.024 4.024 0 00-3.295-3.294V3.563l7.764 7.763h-4.47zm-4.634-3.294a4.024 4.024 0 00-3.294 3.294H3.563l7.763-7.763v4.47zm-3.294 4.633a4.024 4.024 0 003.294 3.295v4.469l-7.763-7.764h4.47z"/></symbol><symbol viewBox="0 0 24 24" id="adv-2" xmlns="http://www.w3.org/2000/svg"><path d="M23.975 20.364l-.809-2.808c-.1-.39-.53-.61-.934-.513a.736.736 0 00-.53.904l.302 1.074-3.612-2.002v-5.91c0-.268-.152-.488-.38-.635l-5.254-2.93V3.515l.808.806c.152.146.354.22.53.22a.887.887 0 00.531-.196c.303-.268.303-.732.026-1.025l-2.097-2.076A.727.727 0 0012 1a.7.7 0 00-.53.22L9.373 3.295c-.278.293-.278.757.025 1.026.303.269.783.269 1.06-.024l.81-.806V7.52l-5.306 2.979a.725.725 0 00-.379.635v5.909l-3.612 2.002.328-1.074c.101-.39-.126-.782-.53-.904a.78.78 0 00-.935.513l-.809 2.784a.726.726 0 00.076.562.78.78 0 00.455.341l2.93.709a.52.52 0 00.177.024c.329 0 .632-.22.733-.537.1-.39-.152-.782-.556-.88l-1.112-.292 3.613-2.003 5.28 2.955a.732.732 0 00.379.098.732.732 0 00.379-.098l5.28-2.955 3.613 2.003-1.137.268c-.405.098-.657.489-.556.88.076.317.404.537.733.537.05 0 .126 0 .176-.025l2.956-.684a.71.71 0 00.455-.341.726.726 0 00.076-.562zM7.099 12.379l4.143 2.32v4.64l-4.168-2.32v-4.64h.025zM12 13.43l-4.168-2.32L12 8.79l4.168 2.32L12 13.43zm.758 5.91V14.7l4.168-2.32v4.64l-4.168 2.32z"/><path d="M23.975 20.364l-.809-2.808c-.1-.39-.53-.61-.934-.513a.736.736 0 00-.53.904l.302 1.074-3.612-2.002v-5.91c0-.268-.152-.488-.38-.635l-5.254-2.93V3.515l.808.806c.152.146.354.22.53.22a.887.887 0 00.531-.196c.303-.268.303-.732.026-1.025l-2.097-2.076A.727.727 0 0012 1a.7.7 0 00-.53.22L9.373 3.295c-.278.293-.278.757.025 1.026.303.269.783.269 1.06-.024l.81-.806V7.52l-5.306 2.979a.725.725 0 00-.379.635v5.909l-3.612 2.002.328-1.074c.101-.39-.126-.782-.53-.904a.78.78 0 00-.935.513l-.809 2.784a.726.726 0 00.076.562.78.78 0 00.455.341l2.93.709a.52.52 0 00.177.024c.329 0 .632-.22.733-.537.1-.39-.152-.782-.556-.88l-1.112-.292 3.613-2.003 5.28 2.955a.732.732 0 00.379.098.732.732 0 00.379-.098l5.28-2.955 3.613 2.003-1.137.268c-.405.098-.657.489-.556.88.076.317.404.537.733.537.05 0 .126 0 .176-.025l2.956-.684a.71.71 0 00.455-.341.726.726 0 00.076-.562zM7.099 12.379l4.143 2.32v4.64l-4.168-2.32v-4.64h.025zM12 13.43l-4.168-2.32L12 8.79l4.168 2.32L12 13.43zm.758 5.91V14.7l4.168-2.32v4.64l-4.168 2.32z"/></symbol><symbol viewBox="0 0 24 24" id="adv-3" xmlns="http://www.w3.org/2000/svg"><path d="M17.684 21l-2.04-11.027-3.75 11.261h-.585L7.453 9.973 5.461 21H3.234L6.445 3.832h1.067l4.09 12.527 3.773-12.527h1.055L19.91 21h-2.226z"/><path d="M17.684 21l-2.04-11.027-3.75 11.261h-.585L7.453 9.973 5.461 21H3.234L6.445 3.832h1.067l4.09 12.527 3.773-12.527h1.055L19.91 21h-2.226z"/></symbol><symbol viewBox="0 0 24 24" id="adv-4" xmlns="http://www.w3.org/2000/svg"><path fill-rule="evenodd" clip-rule="evenodd" d="M12.941 4H3.064c-.281 0-.55.11-.75.304-.199.195-.312.46-.314.737v13.89a1.03 1.03 0 00.31.74 1.058 1.058 0 00.75.305h1.517c.17.587.532 1.103 1.029 1.469.496.365 1.1.56 1.72.555.618 0 1.22-.197 1.715-.562a2.828 2.828 0 001.033-1.462h4.053c.17.587.532 1.103 1.028 1.469.497.365 1.101.56 1.72.555.619 0 1.22-.197 1.716-.562a2.828 2.828 0 001.033-1.462h1.316a1.07 1.07 0 00.753-.308 1.043 1.043 0 00.307-.745v-2.67c0-.35-.1-.693-.29-.988L18.6 8.443a1.138 1.138 0 00-.965-.522h-3.62l-.01-2.872c0-.278-.112-.545-.312-.742A1.07 1.07 0 0012.941 4zm4.764 16.01c-.22.218-.517.343-.83.35a1.203 1.203 0 01-.834-.345 1.17 1.17 0 01-.35-.823c.007-.308.134-.601.355-.819.22-.217.518-.342.83-.349.314 0 .615.123.837.342.222.22.346.516.346.826a1.18 1.18 0 01-.354.818zm-3.611-4.08a.25.25 0 01-.077-.18l-.002-5.871c0-.069.027-.135.077-.183a.265.265 0 01.185-.076h2.995a.265.265 0 01.221.12l2.202 5.88a.227.227 0 01.036.12.274.274 0 01-.127.23.26.26 0 01-.13.03H14.28a.26.26 0 01-.185-.07zm-5.931 4.08a1.192 1.192 0 01-1.675 0 1.16 1.16 0 01-.346-.826c.004-.308.13-.603.352-.82a1.21 1.21 0 01.832-.347c.314 0 .615.123.837.341a1.16 1.16 0 010 1.652zM12.5 5.5h-9V16h9V5.5z"/><path d="M12.5 7.921h-9V9.3H13l-.5-1.379zm0 4.079h-9v1.3h9V12z"/></symbol><symbol viewBox="0 0 24 24" id="adv-5" xmlns="http://www.w3.org/2000/svg"><path fill-rule="evenodd" clip-rule="evenodd" d="M9 1v9h9V1H9zm7.5 1.5h-1.313v1.875H13.5V2.5h-3v6h6v-6zM13 11v9h9v-9h-9zm7.5 1.5h-1.313v1.875H17.5V12.5h-3v6h6v-6zM3 11h9v9H3v-9zm6.188 1.5H10.5v6h-6v-6h3v1.875h1.688V12.5z"/><path d="M23 22v-1H1v1h22z"/></symbol><symbol viewBox="0 0 17 19" id="attachment" xmlns="http://www.w3.org/2000/svg"><path d="M5.835 18.193c-1.503 0-2.796-.542-3.878-1.624C.874 15.486.332 14.193.332 12.69.31 11.166.841 9.862 1.923 8.78l7.425-7.425c.773-.773 1.724-1.15 2.85-1.127 1.105 0 2.044.387 2.818 1.16.773.773 1.16 1.713 1.16 2.817 0 1.105-.387 2.044-1.16 2.818l-6 6a2.516 2.516 0 01-1.756.761c-.707 0-1.304-.243-1.79-.729s-.73-1.082-.73-1.79c0-.707.244-1.303.73-1.79l4.59-4.59a1.008 1.008 0 011.426 1.425l-4.657 4.657c-.199.199-.177.42.066.663.221.221.431.232.63.033l6.066-6.065c.375-.376.574-.84.596-1.393 0-.574-.188-1.05-.563-1.425-.376-.375-.85-.563-1.426-.563-.574 0-1.05.188-1.425.563L3.35 10.205a3.386 3.386 0 00-1.03 2.485c0 .972.343 1.8 1.028 2.486a3.386 3.386 0 002.486 1.027c.95-.022 1.767-.376 2.452-1.06l6.016-6.016a1.008 1.008 0 111.425 1.425l-6.015 6.016c-1.083 1.082-2.376 1.624-3.878 1.624z"/></symbol><symbol viewBox="0 0 16 22" id="autorenew" xmlns="http://www.w3.org/2000/svg"><path fill-rule="evenodd" clip-rule="evenodd" d="M8 8V5a6.005 6.005 0 00-5.62 8.098c.161.429.098.924-.226 1.248-.469.469-1.255.381-1.516-.228A7.908 7.908 0 010 11c0-4.42 3.58-8 8-8V0l4 4-4 4zm5.841-.341c.471-.471 1.262-.383 1.524.23.407.954.635 2.005.635 3.111 0 4.42-3.58 8-8 8v3l-4-4 4-4v3c3.31 0 6-2.69 6-6 0-.74-.14-1.447-.387-2.102-.16-.426-.094-.917.228-1.24z"/></symbol><symbol viewBox="0 0 19 18" id="blocks" xmlns="http://www.w3.org/2000/svg"><path fill-rule="evenodd" clip-rule="evenodd" d="M.5 0h4v4h-4V0zm7 0h4v4h-4V0zm11 0h-4v4h4V0zM.5 7h4v4h-4V7zm11 0h-4v4h4V7zm3 0h4v4h-4V7zm-10 7h-4v4h4v-4zm3 0h4v4h-4v-4zm11 0h-4v4h4v-4z"/></symbol><symbol viewBox="0 0 24 24" id="cart" xmlns="http://www.w3.org/2000/svg"><g clip-path="url(#ajclip0)"><path fill-rule="evenodd" clip-rule="evenodd" d="M1 0a1 1 0 100 2h3.18l.832 4.155c.004.029.01.057.017.084l1.67 8.347A3 3 0 009.69 17h9.702a3 3 0 002.99-2.415l1.601-8.398A1 1 0 0023 5H6.82L5.98.804A1 1 0 005 0H1zm7.66 14.195L7.22 7h14.571l-1.372 7.198a1 1 0 01-1 .802H9.66a1 1 0 01-1-.805z"/><path d="M7 21a2 2 0 114 0 2 2 0 01-4 0zm11 0a2 2 0 114 0 2 2 0 01-4 0z"/></g><defs><clipPath id="ajclip0"><path d="M0 0h24v24H0z"/></clipPath></defs></symbol><symbol viewBox="0 0 18 18" id="catalog2" xmlns="http://www.w3.org/2000/svg"><path fill-rule="evenodd" clip-rule="evenodd" d="M0 0h4v4H0V0zm7 0h4v4H7V0zm11 0h-4v4h4V0zM0 7h4v4H0V7zm11 0H7v4h4V7zm3 0h4v4h-4V7zM4 14H0v4h4v-4zm3 0h4v4H7v-4zm11 0h-4v4h4v-4z"/></symbol><symbol viewBox="0 0 12 9" id="check-ok" xmlns="http://www.w3.org/2000/svg"><path fill-rule="evenodd" clip-rule="evenodd" d="M10.914.293a1 1 0 010 1.414l-6.207 6.5a1 1 0 01-1.414 0l-3-3a1 1 0 111.414-1.414L4 6.086 9.5.293a1 1 0 011.414 0z"/></symbol><symbol viewBox="0 0 18 12" id="china" xmlns="http://www.w3.org/2000/svg"><path d="M0 0h18v12H0z"/><path d="M3 1l.449 1.382h1.453l-1.175.854.449 1.382L3 3.764l-1.176.854.45-1.382-1.176-.854H2.55L3 1z"/><circle cx="5.5" cy="1.5" r=".5"/><circle cx="6.5" cy="3.5" r=".5"/><circle cx="5.5" cy="5.5" r=".5"/></symbol><symbol viewBox="0 0 48 48" id="circle-phone" xmlns="http://www.w3.org/2000/svg"><circle cx="24" cy="24" r="23.5"/><circle cx="24" cy="24" r="23.5"/><circle cx="24" cy="24" r="23.5"/><path d="M32 27.98v2.408a1.604 1.604 0 01-1.094 1.527 1.613 1.613 0 01-.66.079 15.941 15.941 0 01-6.943-2.465 15.672 15.672 0 01-4.827-4.818 15.868 15.868 0 01-2.47-6.96 1.603 1.603 0 01.953-1.614 1.61 1.61 0 01.648-.137h2.414a1.61 1.61 0 011.609 1.381c.102.77.29 1.528.563 2.256a1.602 1.602 0 01-.362 1.694l-1.022 1.02a12.86 12.86 0 004.827 4.817l1.022-1.02a1.61 1.61 0 011.697-.36c.73.271 1.488.46 2.26.561A1.61 1.61 0 0132 27.98z"/><path d="M32 27.98v2.408a1.604 1.604 0 01-1.094 1.527 1.613 1.613 0 01-.66.079 15.941 15.941 0 01-6.943-2.465 15.672 15.672 0 01-4.827-4.818 15.868 15.868 0 01-2.47-6.96 1.603 1.603 0 01.953-1.614 1.61 1.61 0 01.648-.137h2.414a1.61 1.61 0 011.609 1.381c.102.77.29 1.528.563 2.256a1.602 1.602 0 01-.362 1.694l-1.022 1.02a12.86 12.86 0 004.827 4.817l1.022-1.02a1.61 1.61 0 011.697-.36c.73.271 1.488.46 2.26.561A1.61 1.61 0 0132 27.98z"/></symbol><symbol viewBox="0 0 24 24" id="clock" xmlns="http://www.w3.org/2000/svg"><path fill-rule="evenodd" clip-rule="evenodd" d="M12 4.636a7.364 7.364 0 100 14.728 7.364 7.364 0 000-14.728zM3 12a9 9 0 1118 0 9 9 0 01-18 0z"/><path fill-rule="evenodd" clip-rule="evenodd" d="M12 4.636a7.364 7.364 0 100 14.728 7.364 7.364 0 000-14.728zM3 12a9 9 0 1118 0 9 9 0 01-18 0z"/><path fill-rule="evenodd" clip-rule="evenodd" d="M12 6.273c.452 0 .818.366.818.818v4.403l2.82 1.41a.818.818 0 11-.731 1.464l-3.273-1.636a.818.818 0 01-.452-.732V7.09c0-.451.366-.817.818-.817z"/><path fill-rule="evenodd" clip-rule="evenodd" d="M12 6.273c.452 0 .818.366.818.818v4.403l2.82 1.41a.818.818 0 11-.731 1.464l-3.273-1.636a.818.818 0 01-.452-.732V7.09c0-.451.366-.817.818-.817z"/></symbol><symbol viewBox="0 0 20 20" id="close" xmlns="http://www.w3.org/2000/svg"><path fill-rule="evenodd" clip-rule="evenodd" d="M10 7.172L2.93.1.101 2.929 7.17 10 .1 17.071 2.93 19.9 10 12.829l7.071 7.07 2.829-2.828-7.071-7.07L19.9 2.928 17.072.101 10 7.17z"/></symbol><symbol viewBox="0 0 14 14" id="close_brs" xmlns="http://www.w3.org/2000/svg"><path d="M13.281.719a.994.994 0 010 1.406L8.406 7l4.875 4.875a.994.994 0 11-1.406 1.406L7 8.406l-4.875 4.875a.994.994 0 11-1.406-1.406L5.594 7 .719 2.125A.994.994 0 012.125.719L7 5.594 11.875.719a.994.994 0 011.406 0z"/></symbol><symbol viewBox="0 0 25 26" id="down_big" xmlns="http://www.w3.org/2000/svg"><g clip-path="url(#arclip0)"><path fill-rule="evenodd" clip-rule="evenodd" d="M14 6.624V26h-3V6.642l-8.378 8.379L.5 12.899 12.509.89 24.5 12.882l-2.122 2.121L14 6.624z"/></g><defs><clipPath id="arclip0"><path transform="rotate(-180 12.5 13)" d="M0 0h25v26H0z"/></clipPath></defs></symbol><symbol viewBox="0 0 24 24" id="earth" xmlns="http://www.w3.org/2000/svg"><path fill-rule="evenodd" clip-rule="evenodd" d="M12 2C6.48 2 2 6.48 2 12s4.48 10 10 10 10-4.48 10-10S17.52 2 12 2zM4 12c0-.61.08-1.21.21-1.78L8.99 15v1c0 1.1.9 2 2 2v1.93C7.06 19.43 4 16.07 4 12zm11.99 4c.9 0 1.64.59 1.9 1.4A7.991 7.991 0 0020 12c0-3.35-2.08-6.23-5.01-7.41V5c0 1.1-.9 2-2 2h-2v2c0 .55-.45 1-1 1h-2v2h6c.55 0 1 .45 1 1v3h1z"/></symbol><symbol viewBox="0 0 18 16" id="email" xmlns="http://www.w3.org/2000/svg"><path fill-rule="evenodd" clip-rule="evenodd" d="M1.724 2.726a.823.823 0 01.73-.453h13.091c.318 0 .596.185.731.453L9 7.819 1.724 2.726zM0 3.078A.82.82 0 000 3.1v9.809a2.46 2.46 0 002.455 2.454h13.09A2.46 2.46 0 0018 12.91V3.102m-1.636 1.56v8.247c0 .448-.37.818-.819.818H2.455a.823.823 0 01-.819-.818V4.662l6.895 4.826a.818.818 0 00.938 0l6.895-4.826zM18 3.075A2.46 2.46 0 0015.545.636H2.455A2.46 2.46 0 000 3.078"/></symbol><symbol viewBox="0 0 8 6" id="expand_more" xmlns="http://www.w3.org/2000/svg"><path d="M7.063.719L8 1.656l-4 4-4-4L.938.72 4 3.78 7.063.72z"/></symbol><symbol viewBox="0 0 12 8" id="expand_more_brs" xmlns="http://www.w3.org/2000/svg"><path d="M9.89 1.281a.994.994 0 011.407 1.407L6 7.984.703 2.688A.994.994 0 112.11 1.28L6 5.171l3.89-3.89z"/></symbol><symbol viewBox="0 0 24 24" id="favourites" xmlns="http://www.w3.org/2000/svg"><path fill-rule="evenodd" clip-rule="evenodd" d="M14.58 1.514a6.868 6.868 0 017.424 1.463 6.746 6.746 0 011.477 2.19 6.691 6.691 0 010 5.164 6.744 6.744 0 01-1.477 2.19l-9.263 9.175a1.055 1.055 0 01-1.482 0L1.995 12.52A6.716 6.716 0 010 7.75a6.72 6.72 0 011.995-4.772 6.846 6.846 0 014.818-1.976c1.806 0 3.54.71 4.817 1.976l.37.366.37-.366a6.818 6.818 0 012.21-1.463zm2.607 1.562a4.755 4.755 0 00-3.335 1.369l-1.111 1.1a1.055 1.055 0 01-1.482 0l-1.111-1.1a4.74 4.74 0 00-3.335-1.369 4.74 4.74 0 00-3.336 1.369 4.65 4.65 0 00-1.381 3.304 4.65 4.65 0 001.381 3.303L12 19.494l8.522-8.442a4.633 4.633 0 000-6.607 4.754 4.754 0 00-3.335-1.37z"/></symbol><symbol viewBox="0 0 23 21" id="favourites-" xmlns="http://www.w3.org/2000/svg"><path fill-rule="evenodd" clip-rule="evenodd" d="M13.913.495A6.5 6.5 0 0120.998 11.1l-8.84 8.84a1 1 0 01-1.414 0l-8.84-8.84a6.501 6.501 0 119.194-9.194l.353.353.353-.353a6.502 6.502 0 012.11-1.41zM16.401 2a4.5 4.5 0 00-3.182 1.319l-1.06 1.06a1 1 0 01-1.415 0l-1.06-1.06a4.501 4.501 0 10-6.366 6.366l8.133 8.133 8.133-8.133A4.501 4.501 0 0016.401 2z"/></symbol><symbol viewBox="0 0 24 24" id="favourites-f" xmlns="http://www.w3.org/2000/svg"><path fill-rule="evenodd" clip-rule="evenodd" d="M14.15 3.44a5.585 5.585 0 014.345 0 5.67 5.67 0 011.842 1.254 5.794 5.794 0 011.23 1.877 5.878 5.878 0 010 4.427 5.792 5.792 0 01-1.23 1.877l-7.72 7.864a.862.862 0 01-1.235 0l-7.72-7.864A5.84 5.84 0 012 8.785a5.84 5.84 0 011.663-4.09A5.625 5.625 0 017.677 3c1.506 0 2.95.61 4.015 1.695l.308.314.308-.314A5.671 5.671 0 0114.15 3.44z"/></symbol><symbol viewBox="0 0 40 40" id="fb" xmlns="http://www.w3.org/2000/svg"><path fill-rule="evenodd" clip-rule="evenodd" d="M20 40c11.046 0 20-8.954 20-20S31.046 0 20 0 0 8.954 0 20s8.954 20 20 20zm-2.032-10v-8.75H15v-3.62h2.968v-2.758c0-3.138 1.744-4.872 4.416-4.872 1.278 0 2.616.245 2.616.245v3.081h-1.475c-1.452 0-1.904.966-1.904 1.957v2.347h3.242l-.518 3.62H21.62V30h-3.653z"/></symbol><symbol viewBox="0 0 16 10" id="filter" xmlns="http://www.w3.org/2000/svg"><path fill-rule="evenodd" clip-rule="evenodd" d="M2 0h4v1h9a1 1 0 110 2H6v1H2V3H1a1 1 0 010-2h1V0zM1 7a1 1 0 000 2h9v1h4V9h1a1 1 0 100-2h-1V6h-4v1H1z"/></symbol><symbol viewBox="0 0 18 12" id="germany" xmlns="http://www.w3.org/2000/svg"><path d="M0 0h18v4H0zM0 8h18v4H0zM0 4h18v4H0z"/></symbol><symbol viewBox="0 0 18 18" id="grid" xmlns="http://www.w3.org/2000/svg"><path fill-rule="evenodd" clip-rule="evenodd" d="M0 1a1 1 0 011-1h7v8H0V1zm2 1h4v4H2V2zm-2 8h8v8H1a1 1 0 01-1-1v-7zm2 2h4v4H2v-4zM17 0h-7v8h8V1a1 1 0 00-1-1zm-1 2h-4v4h4V2zm-6 8h8v7a1 1 0 01-1 1h-7v-8zm2 2h4v4h-4v-4z"/><path fill-rule="evenodd" clip-rule="evenodd" d="M0 1a1 1 0 011-1h7v8H0V1zm2 1h4v4H2V2zm-2 8h8v8H1a1 1 0 01-1-1v-7zm2 2h4v4H2v-4zM17 0h-7v8h8V1a1 1 0 00-1-1zm-1 2h-4v4h4V2zm-6 8h8v7a1 1 0 01-1 1h-7v-8zm2 2h4v4h-4v-4z"/></symbol><symbol viewBox="0 0 40 40" id="insta" xmlns="http://www.w3.org/2000/svg"><path fill-rule="evenodd" clip-rule="evenodd" d="M20 40c11.046 0 20-8.954 20-20S31.046 0 20 0 0 8.954 0 20s8.954 20 20 20zm-6-28a2 2 0 00-2 2v3h4a4.993 4.993 0 014-2c1.636 0 3.088.786 4 2h4v-3a2 2 0 00-2-2H14zm14 7h-3.1a5 5 0 11-9.8 0H12v7a2 2 0 002 2h12a2 2 0 002-2v-7zm-11 1a3 3 0 116 0 3 3 0 01-6 0zm10-5.5a1.5 1.5 0 11-3 0 1.5 1.5 0 013 0z"/></symbol><symbol viewBox="0 0 18 12" id="italy" xmlns="http://www.w3.org/2000/svg"><path d="M0 0h6v12H0zM6 0h6v12H6zM12 0h6v12h-6z"/></symbol><symbol viewBox="0 0 18 17" id="list" xmlns="http://www.w3.org/2000/svg"><path fill-rule="evenodd" clip-rule="evenodd" d="M1 0a1 1 0 00-1 1v1h18V1a1 1 0 00-1-1H1zm17 5H0v2h18V5zM0 10h18v2H0v-2zm18 5H0v1a1 1 0 001 1h16a1 1 0 001-1v-1z"/></symbol><symbol viewBox="0 0 348 30" id="logo" xmlns="http://www.w3.org/2000/svg"><path d="M5.815.484c.484 0 .726.242.726.726v11.612L18.655.969c.485-.242.727-.484 1.454-.484h6.541c.485 0 .727.484.242.726l-12.84 12.096 13.567 15.726c.242.484.242.726-.242.726h-6.541c-.485 0-.97-.242-1.454-.484l-9.933-12.34-3.15 2.42v9.677c0 .484-.242.726-.727.726H.727c-.485 0-.727-.242-.727-.726V1.21C0 .726.242.484.727.484h5.088zm52.574 0c.484 0 .727.242.727.726v4.354c0 .484-.243.726-.727.726H42.157v5.565H56.45c.484 0 .727.242.727.726v4.354c0 .484-.243.726-.727.726H42.157v6.29h16.716c.485 0 .727.242.727.726v4.355c0 .484-.242.726-.727.726H36.584c-.484 0-.727-.242-.727-.726V1.21c0-.484.485-.726.727-.726H58.39zm25.438 15.484c3.392 0 5.088-1.936 5.088-4.839 0-2.903-1.938-4.839-5.088-4.839h-7.752v9.678h7.752zm0-15.484c6.542 0 11.387 4.597 11.387 10.645 0 6.29-4.845 10.887-11.387 10.887h-7.752v7.016c0 .484-.243.726-.727.726h-4.846c-.484 0-.727-.242-.727-.726V1.21c0-.484.243-.726.727-.726h13.325zm24.469 17.903h10.176L113.626 6.29h-.484l-4.846 12.097zm12.356 5.564h-14.778l-1.939 5.081c-.242.484-.484.726-.969.726h-5.33c-.484 0-.727-.242-.484-.726L109.75.968c0-.242.484-.484.727-.484h6.057c.242 0 .484.242.727.484l12.113 28.064c.242.484 0 .968-.484.968h-5.088c-.485 0-.969-.242-1.212-.726l-1.938-5.323zM169.107.484c.485 0 .727.242.727.726v27.822c0 .484-.242.726-.727.726h-4.845c-.485 0-.727-.242-.727-.726V18.387l.242-7.984h-.242l-4.361 11.13-3.392 7.741c-.242.242-.484.484-.969.484h-3.392c-.484 0-.727-.242-.969-.484l-3.149-7.742-4.361-11.129h-.243l.243 7.984v10.645c0 .484-.243.726-.727.726h-4.603c-.485 0-.727-.242-.727-.726V1.21c0-.484.242-.726.727-.726h6.299c.484 0 .726.242.969.484l4.361 9.919 4.361 10.887h.242l4.361-10.887 4.119-9.92c.242-.241.484-.483.969-.483h5.814zm15.262 14.758c0 5.322 3.877 9.194 9.207 9.194 5.33 0 9.206-3.872 9.206-9.194 0-5.323-3.876-9.194-9.206-9.194-5.572-.242-9.207 3.63-9.207 9.194zM193.576 0c8.479 0 15.505 6.532 15.505 15 0 8.71-7.026 15-15.505 15-8.48 0-15.506-6.532-15.506-15s6.784-15 15.506-15zm46.033.484c.484 0 .727.242.727.726v4.354c0 .484-.243.726-.727.726h-9.449v22.742c0 .484-.242.726-.727.726h-4.845c-.485 0-.727-.242-.727-.726V6.29h-9.449c-.484 0-.726-.242-.726-.726V1.21c0-.484.242-.726.726-.726h25.197zm31.253 0c.484 0 .726.242.726.726v4.354c0 .484-.242.726-.726.726h-16.233v5.565h14.294c.485 0 .727.242.727.726v4.354c0 .484-.242.726-.727.726h-14.294v6.29h16.717c.485 0 .727.242.727.726v4.355c0 .484-.242.726-.727.726h-22.289c-.485 0-.727-.242-.727-.726V1.21c0-.484.485-.726.727-.726h21.805zm16.716 0c.485 0 .727.242.727.726v11.612L300.419.969c.484-.242.727-.484 1.453-.484h6.542c.484 0 .727.484.242.726l-12.84 12.096 13.567 15.726c.242.484.242.726-.242.726h-6.542c-.484 0-.969-.242-1.453-.484l-9.934-12.339-3.149 2.42v9.677c0 .484-.243.726-.727.726h-4.846c-.484 0-.726-.242-.726-.726V1.21c0-.484.242-.726.726-.726h5.088zm39.25 17.903h10.175L332.158 6.29h-.485l-4.845 12.097zm12.356 5.564h-14.779l-1.938 5.081c-.243.484-.485.726-.969.726h-5.33c-.485 0-.727-.242-.485-.726L328.281.968c0-.242.485-.484.727-.484h6.057c.242 0 .484.242.727.484l12.113 28.064c.243.484 0 .968-.484.968h-5.088c-.485 0-.969-.242-1.211-.726l-1.938-5.323z"/></symbol><symbol viewBox="0 0 24 24" id="map-marker" xmlns="http://www.w3.org/2000/svg"><path fill-rule="evenodd" clip-rule="evenodd" d="M12 3.667a6.273 6.273 0 00-4.525 1.952A6.81 6.81 0 005.6 10.333c0 2.582 1.613 5.087 3.38 7.031a23.918 23.918 0 003.02 2.78 23.915 23.915 0 003.02-2.78c1.767-1.944 3.38-4.449 3.38-7.03a6.81 6.81 0 00-1.874-4.715A6.273 6.273 0 0012 3.667zm0 17.5l-.444.693-.002-.002-.006-.003-.018-.013a15.014 15.014 0 01-.308-.226 25.54 25.54 0 01-3.403-3.105C5.987 16.497 4 13.585 4 10.333c0-2.21.843-4.33 2.343-5.892C7.843 2.878 9.878 2 12 2s4.157.878 5.657 2.44C19.157 6.005 20 8.124 20 10.334c0 3.252-1.987 6.164-3.82 8.178a25.545 25.545 0 01-3.402 3.105 15.235 15.235 0 01-.308.226l-.018.013-.005.003-.002.002-.445-.693zm0 0l.444.693a.774.774 0 01-.888 0l.444-.693z"/><path fill-rule="evenodd" clip-rule="evenodd" d="M12 3.667a6.273 6.273 0 00-4.525 1.952A6.81 6.81 0 005.6 10.333c0 2.582 1.613 5.087 3.38 7.031a23.918 23.918 0 003.02 2.78 23.915 23.915 0 003.02-2.78c1.767-1.944 3.38-4.449 3.38-7.03a6.81 6.81 0 00-1.874-4.715A6.273 6.273 0 0012 3.667zm0 17.5l-.444.693-.002-.002-.006-.003-.018-.013a15.014 15.014 0 01-.308-.226 25.54 25.54 0 01-3.403-3.105C5.987 16.497 4 13.585 4 10.333c0-2.21.843-4.33 2.343-5.892C7.843 2.878 9.878 2 12 2s4.157.878 5.657 2.44C19.157 6.005 20 8.124 20 10.334c0 3.252-1.987 6.164-3.82 8.178a25.545 25.545 0 01-3.402 3.105 15.235 15.235 0 01-.308.226l-.018.013-.005.003-.002.002-.445-.693zm0 0l.444.693a.774.774 0 01-.888 0l.444-.693z"/><path fill-rule="evenodd" clip-rule="evenodd" d="M12 8a2 2 0 100 4 2 2 0 000-4zm-4 2a4 4 0 118 0 4 4 0 01-8 0z"/><path fill-rule="evenodd" clip-rule="evenodd" d="M12 8a2 2 0 100 4 2 2 0 000-4zm-4 2a4 4 0 118 0 4 4 0 01-8 0z"/></symbol><symbol viewBox="0 0 24 24" id="pdf" xmlns="http://www.w3.org/2000/svg"><path fill-rule="evenodd" clip-rule="evenodd" d="M6 2h8l6 6v12c0 1.1-.9 2-2 2H5.99C4.89 22 4 21.1 4 20l.01-16c0-1.1.89-2 1.99-2zm0 2v16h12V9h-5V4H6z"/><path fill-rule="evenodd" clip-rule="evenodd" d="M8 14h1c.55 0 1-.45 1-1v-1c0-.55-.45-1-1-1H7v5h1v-2zm6 1v-3c0-.55-.45-1-1-1h-2v5h2c.55 0 1-.45 1-1zm-2-3h1v3h-1v-3zm5 2h-1v2h-1v-5h2v1h-1v1h1v1zm-8-2H8v1h1v-1z"/></symbol><symbol viewBox="0 0 16 16" id="persone" xmlns="http://www.w3.org/2000/svg"><path fill-rule="evenodd" clip-rule="evenodd" d="M8 0C5.79 0 4 1.79 4 4s1.79 4 4 4 4-1.79 4-4-1.79-4-4-4zm2.1 4a2.1 2.1 0 10-4.2 0 2.1 2.1 0 004.2 0zm4 9c0-.64-3.13-2.1-6.1-2.1-2.97 0-6.1 1.46-6.1 2.1v1.1h12.2V13zM0 13c0-2.66 5.33-4 8-4s8 1.34 8 4v3H0v-3z"/></symbol><symbol viewBox="0 0 24 24" id="phone" xmlns="http://www.w3.org/2000/svg"><path d="M20 15.98v2.408a1.604 1.604 0 01-1.094 1.527 1.613 1.613 0 01-.66.079 15.941 15.941 0 01-6.943-2.465 15.672 15.672 0 01-4.827-4.818 15.868 15.868 0 01-2.47-6.96 1.603 1.603 0 01.953-1.614c.204-.09.425-.137.648-.137h2.414A1.61 1.61 0 019.63 5.381c.102.77.29 1.528.563 2.256a1.602 1.602 0 01-.362 1.694l-1.022 1.02a12.86 12.86 0 004.827 4.817l1.022-1.02a1.61 1.61 0 011.697-.36c.73.271 1.488.46 2.26.561A1.61 1.61 0 0120 15.98z"/><path d="M20 15.98v2.408a1.604 1.604 0 01-1.094 1.527 1.613 1.613 0 01-.66.079 15.941 15.941 0 01-6.943-2.465 15.672 15.672 0 01-4.827-4.818 15.868 15.868 0 01-2.47-6.96 1.603 1.603 0 01.953-1.614c.204-.09.425-.137.648-.137h2.414A1.61 1.61 0 019.63 5.381c.102.77.29 1.528.563 2.256a1.602 1.602 0 01-.362 1.694l-1.022 1.02a12.86 12.86 0 004.827 4.817l1.022-1.02a1.61 1.61 0 011.697-.36c.73.271 1.488.46 2.26.561A1.61 1.61 0 0120 15.98z"/></symbol><symbol viewBox="0 0 24 24" id="phone-o" xmlns="http://www.w3.org/2000/svg"><path d="M22.001 16.92v3a2 2 0 01-2.18 2 19.79 19.79 0 01-8.63-3.07 19.5 19.5 0 01-6-6 19.79 19.79 0 01-3.07-8.67A2 2 0 014.111 2h3a2 2 0 012 1.72c.127.96.362 1.903.7 2.81a2 2 0 01-.45 2.11l-1.27 1.27a16 16 0 006 6l1.27-1.27a2 2 0 012.11-.45c.908.339 1.85.574 2.81.7a2 2 0 011.72 2.03z"/></symbol><symbol viewBox="0 0 18 12" id="portugal" xmlns="http://www.w3.org/2000/svg"><path d="M7 0h11v12H7zM0 0h7v12H0z"/><circle cx="7" cy="6" r="2.75"/><path d="M5.5 4h3v2.5a1.5 1.5 0 11-3 0V4z"/><path d="M5.6 4.1h2.8v2.4a1.4 1.4 0 11-2.8 0V4.1z"/><path d="M6 5h2v1a1 1 0 01-2 0V5z"/><rect x="6.5" y="5.5" width="1" height="1" rx=".5"/></symbol><symbol viewBox="0 0 16 16" id="quest" xmlns="http://www.w3.org/2000/svg"><path fill-rule="evenodd" clip-rule="evenodd" d="M8 1c-1.928 0-3.582.69-4.962 2.07C1.679 4.43 1 6.072 1 8s.68 3.582 2.038 4.962C4.418 14.321 6.072 15 8 15s3.571-.68 4.93-2.038C14.31 11.582 15 9.928 15 8s-.69-3.571-2.07-4.93C11.57 1.69 9.928 1 8 1zm-.375 7.912c-.114.315-.175.743-.185 1.285h1.265c0-.692.166-1.223.5-1.593l.744-.738c.739-.775 1.108-1.56 1.108-2.358 0-.807-.242-1.44-.725-1.9-.478-.465-1.148-.698-2.01-.698-.83 0-1.504.228-2.023.684-.515.45-.777 1.046-.786 1.784h1.264c0-.415.142-.745.424-.991.283-.246.656-.37 1.121-.37.479 0 .843.137 1.094.41.25.27.376.643.376 1.122 0 .497-.191.961-.574 1.394l-.896.923c-.35.383-.583.732-.697 1.046zm-.055 2.94a.738.738 0 00-.184.512c0 .205.061.376.184.513.128.132.315.198.56.198.247 0 .434-.066.561-.198a.723.723 0 00.192-.513.722.722 0 00-.192-.512c-.127-.142-.314-.212-.56-.212-.246 0-.433.07-.56.212z"/></symbol><symbol viewBox="0 0 17 20" id="refresh" xmlns="http://www.w3.org/2000/svg"><path d="M7.676 3.312L7.534 0 2.78 5.18l5.18 4.755-.196-4.57c1.678-.072 3.115.44 4.313 1.54 1.22 1.12 1.866 2.518 1.938 4.196.07 1.633-.454 3.06-1.574 4.28-1.12 1.221-2.507 1.878-4.162 1.971-1.656.05-3.095-.486-4.315-1.606-.967-.887-1.588-1.944-1.862-3.171a5.867 5.867 0 01.376-3.6L.958 7.582c-.86 1.586-1.141 3.279-.843 5.08.299 1.8 1.127 3.324 2.486 4.57 1.612 1.48 3.521 2.171 5.73 2.076 2.207-.094 4.06-.96 5.56-2.594 1.5-1.635 2.203-3.556 2.109-5.764-.095-2.207-.949-4.05-2.56-5.53-1.635-1.5-3.556-2.202-5.764-2.107z"/></symbol><symbol viewBox="0 0 24 24" id="renew" xmlns="http://www.w3.org/2000/svg"><path fill-rule="evenodd" clip-rule="evenodd" d="M12 9V6a6.005 6.005 0 00-5.62 8.098c.161.429.098.924-.226 1.248-.469.469-1.255.381-1.516-.228A7.908 7.908 0 014 12c0-4.42 3.58-8 8-8V1l4 4-4 4zm5.841-.341c.471-.471 1.262-.383 1.524.23.407.954.635 2.005.635 3.111 0 4.42-3.58 8-8 8v3l-4-4 4-4v3c3.31 0 6-2.69 6-6 0-.74-.14-1.447-.387-2.102-.16-.426-.094-.917.228-1.24z"/></symbol><symbol viewBox="0 0 24 24" id="rub" xmlns="http://www.w3.org/2000/svg"><path fill-rule="evenodd" clip-rule="evenodd" d="M20 12a8 8 0 11-16 0 8 8 0 0116 0zm2 0c0 5.523-4.477 10-10 10S2 17.523 2 12 6.477 2 12 2s10 4.477 10 10zm-11.068 3.12h2.29v-1.08h-2.29v-.936h2.385c1.103-.005 1.953-.27 2.55-.793.602-.53.902-1.279.902-2.25 0-.925-.312-1.658-.936-2.2-.624-.543-1.47-.814-2.536-.814H9.626v4.983H8.211v1.074h1.415v.936H8.211v1.08h1.415V17h1.306v-1.88zm2.365-3.09h-2.365V8.127h2.406c.652.005 1.169.187 1.552.547.383.355.574.822.574 1.401 0 .638-.185 1.124-.554 1.456-.369.333-.907.5-1.613.5z"/></symbol><symbol viewBox="0 0 9 10" id="rubl" xmlns="http://www.w3.org/2000/svg"><path d="M5.222 8.12h-2.29V10H1.626V8.12H.211V7.04h1.415v-.936H.211V5.03h1.415V.047h3.67c1.067 0 1.913.271 2.537.813.624.543.937 1.276.937 2.202 0 .97-.301 1.72-.903 2.249-.597.524-1.447.788-2.55.793H2.932v.936h2.29v1.08zm-2.29-3.09h2.365c.706 0 1.244-.166 1.613-.499.37-.332.554-.818.554-1.456 0-.579-.192-1.046-.574-1.401-.383-.36-.9-.542-1.552-.547H2.932V5.03z"/></symbol><symbol viewBox="0 0 18 12" id="russia" xmlns="http://www.w3.org/2000/svg"><path d="M0 0h18v4H0zM0 8h18v4H0zM0 4h18v4H0z"/><path d="M.25.25h17.5v11.5H.25z"/></symbol><symbol viewBox="0 0 16 16" id="search" xmlns="http://www.w3.org/2000/svg"><path fill-rule="evenodd" clip-rule="evenodd" d="M6.666 1.333a4.667 4.667 0 100 9.334 4.667 4.667 0 000-9.334zM.666 6a6 6 0 1112 0 6 6 0 01-12 0z"/><path fill-rule="evenodd" clip-rule="evenodd" d="M10.245 9.58a.84.84 0 011.188 0l4.125 4.124a.84.84 0 01-1.188 1.188l-4.125-4.125a.84.84 0 010-1.188z"/></symbol><symbol viewBox="0 0 12 12" id="search-clear" xmlns="http://www.w3.org/2000/svg"><path d="M11.234.766a.829.829 0 010 1.171L7.172 6l4.062 4.063a.829.829 0 01-1.171 1.171L6 7.172l-4.063 4.062a.829.829 0 11-1.171-1.171L4.828 6 .766 1.937A.829.829 0 111.937.766L6 4.828 10.063.766a.829.829 0 011.171 0z"/></symbol><symbol viewBox="0 0 24 24" id="shopping-cart" xmlns="http://www.w3.org/2000/svg"><g clip-path="url(#bvclip0)"><path fill-rule="evenodd" clip-rule="evenodd" d="M1 0a1 1 0 100 2h3.18l.832 4.155c.004.029.01.057.017.084l1.67 8.347A3 3 0 009.69 17h9.702a3 3 0 002.99-2.415l1.601-8.398A1 1 0 0023 5H6.82L5.98.804A1 1 0 005 0H1zm7.66 14.195L7.22 7h14.571l-1.372 7.198a1 1 0 01-1 .802H9.66a1 1 0 01-1-.805z"/><path d="M7 21a2 2 0 114 0 2 2 0 01-4 0zm11 0a2 2 0 114 0 2 2 0 01-4 0z"/></g><defs><clipPath id="bvclip0"><path d="M0 0h24v24H0z"/></clipPath></defs></symbol><symbol viewBox="0 0 18 12" id="spain" xmlns="http://www.w3.org/2000/svg"><path d="M0 0h18v3H0zm0 9h18v3H0zM0 3h18v6H0z"/><rect x="2" y="4" width="4" height="4" rx="1"/></symbol><symbol viewBox="0 0 24 24" id="tel" xmlns="http://www.w3.org/2000/svg"><path d="M22 16.723v3.16c0 .294-.057.585-.169.854-.112.269-.277.51-.483.708-.206.199-.45.35-.715.444a1.924 1.924 0 01-.826.102 19.323 19.323 0 01-8.678-3.235 20.104 20.104 0 01-6.034-6.322 21.507 21.507 0 01-3.087-9.137 2.202 2.202 0 01.097-.862c.09-.277.233-.532.42-.748.189-.216.418-.389.674-.507.255-.118.531-.18.81-.18h3.017c.488-.005.961.176 1.331.51.37.333.612.796.68 1.303.128 1.011.364 2.005.704 2.96.135.378.165.788.085 1.182a2.14 2.14 0 01-.537 1.042L8.012 9.336c1.431 2.638 3.516 4.822 6.033 6.322l1.277-1.338c.274-.283.619-.479.995-.563a1.924 1.924 0 011.127.089c.912.357 1.86.604 2.826.737.488.073.934.33 1.253.725.32.394.489.898.476 1.415z"/></symbol><symbol viewBox="0 0 18 20" id="trash" xmlns="http://www.w3.org/2000/svg"><path fill-rule="evenodd" clip-rule="evenodd" d="M.667 5c0-.46.373-.833.833-.833h15a.833.833 0 110 1.667h-15A.833.833 0 01.667 5z"/><path fill-rule="evenodd" clip-rule="evenodd" d="M7.334 2.5a.833.833 0 00-.834.833v.834h5v-.833a.833.833 0 00-.833-.834H7.334zm5.833 1.667v-.833a2.5 2.5 0 00-2.5-2.5H7.334a2.5 2.5 0 00-2.5 2.5v.833H3.167A.833.833 0 002.334 5v11.667a2.5 2.5 0 002.5 2.5h8.333a2.5 2.5 0 002.5-2.5V5a.833.833 0 00-.833-.833h-1.667zM4 5.834v10.833a.833.833 0 00.834.833h8.333a.833.833 0 00.833-.833V5.833H4z"/><path fill-rule="evenodd" clip-rule="evenodd" d="M7.334 8.334c.46 0 .833.373.833.833v5a.833.833 0 11-1.667 0v-5c0-.46.373-.833.834-.833zm3.333 0c.46 0 .833.373.833.833v5a.833.833 0 11-1.666 0v-5c0-.46.373-.833.833-.833z"/></symbol><symbol viewBox="0 0 68 92" id="zoom" xmlns="http://www.w3.org/2000/svg"><path fill-rule="evenodd" clip-rule="evenodd" d="M41.006 13.84a1.99 1.99 0 01-1.414.586 2 2 0 01-1.414-3.414l6.984-6.992L41.51 4a2 2 0 01-1.988-2.012C39.53.885 40.502.004 41.534 0l8.416.047h.021c.004 0 .007 0 .01.002a1.815 1.815 0 011.169.428l.031.025a.84.84 0 00.084.053.478.478 0 01.11.076.54.54 0 01.087.124.734.734 0 00.1.148c.092.116.183.232.24.37.105.25.159.514.157.78l.047 8.422a2 2 0 01-1.988 2.011h-.012a2 2 0 01-2-1.988l-.02-3.646-6.98 6.988zM19.371 31.567c.054.129.138.237.223.346a6.486 6.486 0 01.051.068c.024.03.042.063.06.095a.584.584 0 00.092.133c.037.037.08.06.123.085a.746.746 0 01.091.057l.053.041c.118.093.236.185.376.244a1.997 1.997 0 00.776.158l.005-.001 8.42.047h.012a2 2 0 00.012-4l-3.654-.02 6.984-6.992A2 2 0 1030.167 19l-6.98 6.988-.02-3.644a2 2 0 00-2-1.989h-.012a2 2 0 00-1.989 2.012l.047 8.42c0 .266.053.53.158.78zm41.416 42.23c1.244-2.52 1.476-5.985-1.591-9.05-1.318-1.319-2.706-1.979-4.065-2.261 1.244-2.521 1.476-5.986-1.591-9.052-1.065-1.067-2.246-1.793-3.489-2.172L60.61 40.703c2.273-2.273 4.15-7.162 0-11.312-2.271-2.274-5.074-3.01-7.88-2.074-1.983.66-3.292 1.931-3.444 2.084L24.522 54.5l-1.379-6.616c-.18-.594-1.865-5.84-5.627-7.46-1.644-.71-3.441-.62-5.181.25-5.047 2.524-5.106 9.493-5.106 9.77l-.168 19.16-3.547 8.797L.75 89.517a2.002 2.002 0 003.883.968L7.31 79.638l3.602-8.887.318-20.285c0-.047.078-4.803 2.895-6.211.888-.441 1.431-.318 1.806-.156 1.75.75 3.065 3.906 3.34 4.773l2.856 13.754L52.124 32.22c.008-.008.795-.75 1.87-1.108 1.366-.462 2.575-.105 3.788 1.108 2.582 2.582.644 4.99 0 5.656L30.91 64.746a2 2 0 102.828 2.828l11.313-11.313h.001c.008-.007.795-.75 1.872-1.108 1.365-.462 2.574-.11 3.787 1.109 2.582 2.582.644 4.992 0 5.656l-2.82 2.82-.006.004-.002.002-.002.002-.002.002-.001.003-8.482 8.48a2 2 0 102.828 2.828l8.502-8.501c.502-.497 2.974-2.657 5.64.016 2.583 2.582.645 4.993 0 5.657l-5.657 5.656-1.414 1.414h-.001l-1.413 1.414a2 2 0 102.828 2.828l2.828-2.828 2.83-2.828c.472-.473 2.963-2.7 5.656 0 2.582 2.582.645 4.992.012 5.644l-4.114 4.043a2 2 0 102.805 2.852l4.125-4.055c2.274-2.273 4.15-7.164 0-11.312-1.316-1.318-2.705-1.979-4.065-2.261z"/></symbol></svg>