<svg width="24" height="24" fill="none" xmlns="http://www.w3.org/2000/svg"><path d="M3.064 4.5h9.877a.57.57 0 01.401.163.541.541 0 01.163.386v.002l.01 2.872.001.498h4.119a.655.655 0 01.527.267l3.093 6.784.015.033.02.03c.138.215.21.464.21.717v2.676a.532.532 0 01-.16.385.559.559 0 01-.399.163h-1.689l-.107.356c-.144.48-.442.902-.85 1.203a2.394 2.394 0 01-1.42.465h-.004a2.36 2.36 0 01-1.42-.458 2.294 2.294 0 01-.844-1.206l-.105-.36h-4.8l-.107.356c-.144.48-.442.902-.85 1.203a2.394 2.394 0 01-1.42.465h-.004a2.36 2.36 0 01-1.419-.458 2.295 2.295 0 01-.845-1.206l-.105-.36H3.06a.57.57 0 01-.398-.161.542.542 0 01-.161-.383V13.8H3v2.7h10v-2.7h.5v-2.3H13V9.8h.5V7.5H13V5H3v2.5h-.5V5.043a.542.542 0 01.164-.381.571.571 0 01.4-.162zM12 12.8H4v-.3h8v.3zm0-4.3v.3H4v-.3h8zM2.5 9.8H3v1.7h-.5V9.8zm14.372 11.06h.014a1.72 1.72 0 001.17-.494 1.68 1.68 0 00.503-1.163v-.011c0-.445-.179-.87-.495-1.182a1.692 1.692 0 00-1.188-.486h-.01a1.717 1.717 0 00-1.171.493 1.685 1.685 0 00-.503 1.164v.015c.003.442.183.864.498 1.175.315.31.74.485 1.182.489zM13.515 9.879l.002 5.871a.75.75 0 00.762.75h5.205a.755.755 0 00.375-.1.773.773 0 00.372-.664.717.717 0 00-.08-.324l-2.19-5.847-.018-.05-.029-.044a.76.76 0 00-.64-.351h-2.997a.764.764 0 00-.762.759zm-7.873 9.298v.007c0 .445.179.87.495 1.182a1.692 1.692 0 002.377 0 1.66 1.66 0 000-2.363 1.692 1.692 0 00-1.188-.486h-.008a1.71 1.71 0 00-1.176.49c-.313.31-.494.73-.5 1.17z" fill="#FAC420"/><path d="M3.064 4.5h9.877a.57.57 0 01.401.163.541.541 0 01.163.386v.002l.01 2.872.001.498h4.119a.655.655 0 01.527.267l3.093 6.784.015.033.02.03c.138.215.21.464.21.717v2.676a.532.532 0 01-.16.385.559.559 0 01-.399.163h0-1.689l-.107.356c-.144.48-.442.902-.85 1.203a2.394 2.394 0 01-1.42.465h-.004a2.36 2.36 0 01-1.42-.458 2.294 2.294 0 01-.844-1.206l-.105-.36h-4.8l-.107.356c-.144.48-.442.902-.85 1.203a2.394 2.394 0 01-1.42.465h-.004a2.36 2.36 0 01-1.419-.458 2.295 2.295 0 01-.845-1.206l-.105-.36H3.06a.57.57 0 01-.398-.161.542.542 0 01-.161-.383v0V13.8H3v2.7h10v-2.7h.5v-2.3H13V9.8h.5V7.5H13V5H3v2.5h0-.5V5.043a.542.542 0 01.164-.381.571.571 0 01.4-.162zM12 12.8H4v-.3h8v.3zm0-4.3v.3H4v-.3h8zM2.5 9.8H3v1.7h-.5V9.8zm14.372 11.06h.014a1.72 1.72 0 001.17-.494 1.68 1.68 0 00.503-1.163h0v-.011c0-.445-.179-.87-.495-1.182a1.692 1.692 0 00-1.188-.486v0h-.01a1.717 1.717 0 00-1.171.493 1.685 1.685 0 00-.503 1.164v.015c.003.442.183.864.498 1.175.315.31.74.485 1.182.489zM13.515 9.879v0l.002 5.871s0 0 0 0a.75.75 0 00.762.75h5.195v0h.01a.755.755 0 00.375-.1.773.773 0 00.372-.664.717.717 0 00-.08-.324l-2.19-5.847-.018-.05-.029-.044a.76.76 0 00-.64-.351h-2.997a.764.764 0 00-.762.759zm-7.873 9.298h0v.007c0 .445.179.87.495 1.182a1.692 1.692 0 002.377 0 1.66 1.66 0 000-2.363 1.692 1.692 0 00-1.188-.486v0h-.008a1.71 1.71 0 00-1.176.49c-.313.31-.494.73-.5 1.17z" stroke="#FAC420"/><path d="M3.064 4.5h9.877a.57.57 0 01.401.163.541.541 0 01.163.386v.002l.01 2.872.001.498h4.119a.655.655 0 01.527.267l3.093 6.784.015.033.02.03c.138.215.21.464.21.717v2.676a.532.532 0 01-.16.385.559.559 0 01-.399.163h0-1.689l-.107.356c-.144.48-.442.902-.85 1.203a2.394 2.394 0 01-1.42.465h-.004a2.36 2.36 0 01-1.42-.458 2.294 2.294 0 01-.844-1.206l-.105-.36h-4.8l-.107.356c-.144.48-.442.902-.85 1.203a2.394 2.394 0 01-1.42.465h-.004a2.36 2.36 0 01-1.419-.458 2.295 2.295 0 01-.845-1.206l-.105-.36H3.06a.57.57 0 01-.398-.161.542.542 0 01-.161-.383v0V13.8H3v2.7h10v-2.7h.5v-2.3H13V9.8h.5V7.5H13V5H3v2.5h0-.5V5.043a.542.542 0 01.164-.381.571.571 0 01.4-.162zM12 12.8H4v-.3h8v.3zm0-4.3v.3H4v-.3h8zM2.5 9.8H3v1.7h-.5V9.8zm14.372 11.06h.014a1.72 1.72 0 001.17-.494 1.68 1.68 0 00.503-1.163h0v-.011c0-.445-.179-.87-.495-1.182a1.692 1.692 0 00-1.188-.486v0h-.01a1.717 1.717 0 00-1.171.493 1.685 1.685 0 00-.503 1.164v.015c.003.442.183.864.498 1.175.315.31.74.485 1.182.489zM13.515 9.879v0l.002 5.871s0 0 0 0a.75.75 0 00.762.75h5.195v0h.01a.755.755 0 00.375-.1.773.773 0 00.372-.664.717.717 0 00-.08-.324l-2.19-5.847-.018-.05-.029-.044a.76.76 0 00-.64-.351h-2.997a.764.764 0 00-.762.759zm-7.873 9.298h0v.007c0 .445.179.87.495 1.182a1.692 1.692 0 002.377 0 1.66 1.66 0 000-2.363 1.692 1.692 0 00-1.188-.486v0h-.008a1.71 1.71 0 00-1.176.49c-.313.31-.494.73-.5 1.17z" stroke="#FAC420"/></svg>