<svg width="24" height="24" fill="none" xmlns="http://www.w3.org/2000/svg"><path d="M23.975 20.364l-.809-2.808c-.1-.39-.53-.61-.934-.513a.736.736 0 00-.53.904l.302 1.074-3.612-2.002v-5.91c0-.268-.152-.488-.38-.635l-5.254-2.93V3.515l.808.806c.152.146.354.22.53.22a.887.887 0 00.531-.196c.303-.268.303-.732.026-1.025l-2.097-2.076A.727.727 0 0012 1a.7.7 0 00-.53.22L9.373 3.295c-.278.293-.278.757.025 1.026.303.269.783.269 1.06-.024l.81-.806V7.52l-5.306 2.979a.725.725 0 00-.379.635v5.909l-3.612 2.002.328-1.074c.101-.39-.126-.782-.53-.904a.78.78 0 00-.935.513l-.809 2.784a.726.726 0 00.076.562.78.78 0 00.455.341l2.93.709a.52.52 0 00.177.024c.329 0 .632-.22.733-.537.1-.39-.152-.782-.556-.88l-1.112-.292 3.613-2.003 5.28 2.955a.732.732 0 00.379.098.732.732 0 00.379-.098l5.28-2.955 3.613 2.003-1.137.268c-.405.098-.657.489-.556.88.076.317.404.537.733.537.05 0 .126 0 .176-.025l2.956-.684a.71.71 0 00.455-.341.726.726 0 00.076-.562zM7.099 12.379l4.143 2.32v4.64l-4.168-2.32v-4.64h.025zM12 13.43l-4.168-2.32L12 8.79l4.168 2.32L12 13.43zm.758 5.91V14.7l4.168-2.32v4.64l-4.168 2.32z" fill="#FAC420"/><path d="M23.975 20.364l-.809-2.808c-.1-.39-.53-.61-.934-.513a.736.736 0 00-.53.904l.302 1.074-3.612-2.002v-5.91c0-.268-.152-.488-.38-.635l-5.254-2.93V3.515l.808.806c.152.146.354.22.53.22a.887.887 0 00.531-.196c.303-.268.303-.732.026-1.025l-2.097-2.076A.727.727 0 0012 1a.7.7 0 00-.53.22L9.373 3.295c-.278.293-.278.757.025 1.026.303.269.783.269 1.06-.024l.81-.806V7.52l-5.306 2.979a.725.725 0 00-.379.635v5.909l-3.612 2.002.328-1.074c.101-.39-.126-.782-.53-.904a.78.78 0 00-.935.513l-.809 2.784a.726.726 0 00.076.562.78.78 0 00.455.341l2.93.709a.52.52 0 00.177.024c.329 0 .632-.22.733-.537.1-.39-.152-.782-.556-.88l-1.112-.292 3.613-2.003 5.28 2.955a.732.732 0 00.379.098.732.732 0 00.379-.098l5.28-2.955 3.613 2.003-1.137.268c-.405.098-.657.489-.556.88.076.317.404.537.733.537.05 0 .126 0 .176-.025l2.956-.684a.71.71 0 00.455-.341.726.726 0 00.076-.562zM7.099 12.379l4.143 2.32v4.64l-4.168-2.32v-4.64h.025zM12 13.43l-4.168-2.32L12 8.79l4.168 2.32L12 13.43zm.758 5.91V14.7l4.168-2.32v4.64l-4.168 2.32z" fill="#FAC420"/></svg>