<svg width="24" height="24" fill="none" xmlns="http://www.w3.org/2000/svg"><mask id="path-1-inside-1" fill="#fff"><path fill-rule="evenodd" clip-rule="evenodd" d="M15.188 2.5H16.5v6h-6v-6h3v1.875h1.688V2.5zM9 1h9v9H9V1z"/></mask><path fill-rule="evenodd" clip-rule="evenodd" d="M15.188 2.5H16.5v6h-6v-6h3v1.875h1.688V2.5zM9 1h9v9H9V1z" fill="#FAC420"/><path d="M16.5 2.5h1v-1h-1v1zm-1.313 0v-1h-1v1h1zm1.313 6v1h1v-1h-1zm-6 0h-1v1h1v-1zm0-6v-1h-1v1h1zm3 0h1v-1h-1v1zm0 1.875h-1v1h1v-1zm1.688 0v1h1v-1h-1zM9 1V0H8v1h1zm9 0h1V0h-1v1zm0 9v1h1v-1h-1zm-9 0H8v1h1v-1zm7.5-8.5h-1.313v2H16.5v-2zm1 7v-6h-2v6h2zm-7 1h6v-2h-6v2zm-1-7v6h2v-6h-2zm4-1h-3v2h3v-2zm1 2.875V2.5h-2v1.875h2zm.688-1H13.5v2h1.688v-2zm-1-.875v1.875h2V2.5h-2zM10.5 0H9v2h1.5V0zm6 0h-6v2h6V0zM18 0h-1.5v2H18V0zm1 2.5V1h-2v1.5h2zm0 6v-6h-2v6h2zm0 1.5V8.5h-2V10h2zm-2.5 1H18V9h-1.5v2zm-6 0h6V9h-6v2zM9 11h1.5V9H9v2zM8 8.5V10h2V8.5H8zm0-6v6h2v-6H8zM8 1v1.5h2V1H8z" fill="#FAC420" mask="url(#path-1-inside-1)"/><path d="M16.5 2.5h1v-1h-1v1zm-1.313 0v-1h-1v1h1zm1.313 6v1h1v-1h-1zm-6 0h-1v1h1v-1zm0-6v-1h-1v1h1zm3 0h1v-1h-1v1zm0 1.875h-1v1h1v-1zm1.688 0v1h1v-1h-1zM9 1V0H8v1h1zm9 0h1V0h-1v1zm0 9v1h1v-1h-1zm-9 0H8v1h1v-1zm7.5-8.5h-1.313v2H16.5v-2zm1 7v-6h-2v6h2zm-7 1h6v-2h-6v2zm-1-7v6h2v-6h-2zm4-1h-3v2h3v-2zm1 2.875V2.5h-2v1.875h2zm.688-1H13.5v2h1.688v-2zm-1-.875v1.875h2V2.5h-2zM10.5 0H9v2h1.5V0zm6 0h-6v2h6V0zM18 0h-1.5v2H18V0zm1 2.5V1h-2v1.5h2zm0 6v-6h-2v6h2zm0 1.5V8.5h-2V10h2zm-2.5 1H18V9h-1.5v2zm-6 0h6V9h-6v2zM9 11h1.5V9H9v2zM8 8.5V10h2V8.5H8zm0-6v6h2v-6H8zM8 1v1.5h2V1H8z" fill="#FAC420" mask="url(#path-1-inside-1)"/><mask id="path-3-inside-2" fill="#fff"><path fill-rule="evenodd" clip-rule="evenodd" d="M19.188 12.5H20.5v6h-6v-6h3v1.875h1.688V12.5zM13 11h9v9h-9v-9z"/></mask><path fill-rule="evenodd" clip-rule="evenodd" d="M19.188 12.5H20.5v6h-6v-6h3v1.875h1.688V12.5zM13 11h9v9h-9v-9z" fill="#FAC420"/><path d="M20.5 12.5h1v-1h-1v1zm-1.313 0v-1h-1v1h1zm1.313 6v1h1v-1h-1zm-6 0h-1v1h1v-1zm0-6v-1h-1v1h1zm3 0h1v-1h-1v1zm0 1.875h-1v1h1v-1zm1.688 0v1h1v-1h-1zM13 11v-1h-1v1h1zm9 0h1v-1h-1v1zm0 9v1h1v-1h-1zm-9 0h-1v1h1v-1zm7.5-8.5h-1.313v2H20.5v-2zm1 7v-6h-2v6h2zm-7 1h6v-2h-6v2zm-1-7v6h2v-6h-2zm4-1h-3v2h3v-2zm1 2.875V12.5h-2v1.875h2zm.688-1H17.5v2h1.688v-2zm-1-.875v1.875h2V12.5h-2zM14.5 10H13v2h1.5v-2zm6 0h-6v2h6v-2zm1.5 0h-1.5v2H22v-2zm1 2.5V11h-2v1.5h2zm0 6v-6h-2v6h2zm0 1.5v-1.5h-2V20h2zm-2.5 1H22v-2h-1.5v2zm-6 0h6v-2h-6v2zM13 21h1.5v-2H13v2zm-1-2.5V20h2v-1.5h-2zm0-6v6h2v-6h-2zm0-1.5v1.5h2V11h-2z" fill="#FAC420" mask="url(#path-3-inside-2)"/><path d="M20.5 12.5h1v-1h-1v1zm-1.313 0v-1h-1v1h1zm1.313 6v1h1v-1h-1zm-6 0h-1v1h1v-1zm0-6v-1h-1v1h1zm3 0h1v-1h-1v1zm0 1.875h-1v1h1v-1zm1.688 0v1h1v-1h-1zM13 11v-1h-1v1h1zm9 0h1v-1h-1v1zm0 9v1h1v-1h-1zm-9 0h-1v1h1v-1zm7.5-8.5h-1.313v2H20.5v-2zm1 7v-6h-2v6h2zm-7 1h6v-2h-6v2zm-1-7v6h2v-6h-2zm4-1h-3v2h3v-2zm1 2.875V12.5h-2v1.875h2zm.688-1H17.5v2h1.688v-2zm-1-.875v1.875h2V12.5h-2zM14.5 10H13v2h1.5v-2zm6 0h-6v2h6v-2zm1.5 0h-1.5v2H22v-2zm1 2.5V11h-2v1.5h2zm0 6v-6h-2v6h2zm0 1.5v-1.5h-2V20h2zm-2.5 1H22v-2h-1.5v2zm-6 0h6v-2h-6v2zM13 21h1.5v-2H13v2zm-1-2.5V20h2v-1.5h-2zm0-6v6h2v-6h-2zm0-1.5v1.5h2V11h-2z" fill="#FAC420" mask="url(#path-3-inside-2)"/><mask id="path-5-inside-3" fill="#fff"><path fill-rule="evenodd" clip-rule="evenodd" d="M9.188 12.5H10.5v6h-6v-6h3v1.875h1.688V12.5zM3 11h9v9H3v-9z"/></mask><path fill-rule="evenodd" clip-rule="evenodd" d="M9.188 12.5H10.5v6h-6v-6h3v1.875h1.688V12.5zM3 11h9v9H3v-9z" fill="#FAC420"/><path d="M10.5 12.5h1v-1h-1v1zm-1.313 0v-1h-1v1h1zm1.313 6v1h1v-1h-1zm-6 0h-1v1h1v-1zm0-6v-1h-1v1h1zm3 0h1v-1h-1v1zm0 1.875h-1v1h1v-1zm1.688 0v1h1v-1h-1zM3 11v-1H2v1h1zm9 0h1v-1h-1v1zm0 9v1h1v-1h-1zm-9 0H2v1h1v-1zm7.5-8.5H9.187v2H10.5v-2zm1 7v-6h-2v6h2zm-7 1h6v-2h-6v2zm-1-7v6h2v-6h-2zm4-1h-3v2h3v-2zm1 2.875V12.5h-2v1.875h2zm.688-1H7.5v2h1.688v-2zm-1-.875v1.875h2V12.5h-2zM4.5 10H3v2h1.5v-2zm6 0h-6v2h6v-2zm1.5 0h-1.5v2H12v-2zm1 2.5V11h-2v1.5h2zm0 6v-6h-2v6h2zm0 1.5v-1.5h-2V20h2zm-2.5 1H12v-2h-1.5v2zm-6 0h6v-2h-6v2zM3 21h1.5v-2H3v2zm-1-2.5V20h2v-1.5H2zm0-6v6h2v-6H2zM2 11v1.5h2V11H2z" fill="#FAC420" mask="url(#path-5-inside-3)"/><path d="M10.5 12.5h1v-1h-1v1zm-1.313 0v-1h-1v1h1zm1.313 6v1h1v-1h-1zm-6 0h-1v1h1v-1zm0-6v-1h-1v1h1zm3 0h1v-1h-1v1zm0 1.875h-1v1h1v-1zm1.688 0v1h1v-1h-1zM3 11v-1H2v1h1zm9 0h1v-1h-1v1zm0 9v1h1v-1h-1zm-9 0H2v1h1v-1zm7.5-8.5H9.187v2H10.5v-2zm1 7v-6h-2v6h2zm-7 1h6v-2h-6v2zm-1-7v6h2v-6h-2zm4-1h-3v2h3v-2zm1 2.875V12.5h-2v1.875h2zm.688-1H7.5v2h1.688v-2zm-1-.875v1.875h2V12.5h-2zM4.5 10H3v2h1.5v-2zm6 0h-6v2h6v-2zm1.5 0h-1.5v2H12v-2zm1 2.5V11h-2v1.5h2zm0 6v-6h-2v6h2zm0 1.5v-1.5h-2V20h2zm-2.5 1H12v-2h-1.5v2zm-6 0h6v-2h-6v2zM3 21h1.5v-2H3v2zm-1-2.5V20h2v-1.5H2zm0-6v6h2v-6H2zM2 11v1.5h2V11H2z" fill="#FAC420" mask="url(#path-5-inside-3)"/><path fill="#FAC420" d="M1.25 21.25h21.5v.5H1.25z"/><path stroke="#FAC420" stroke-width=".5" d="M1.25 21.25h21.5v.5H1.25z"/><path stroke="#FAC420" stroke-width=".5" d="M1.25 21.25h21.5v.5H1.25z"/></svg>