<svg width="24" height="24" fill="none" xmlns="http://www.w3.org/2000/svg"><path d="M11.326 22.367h.041L12 23l.633-.633h.04v-.04l9.653-9.662h.041v-.04l.633-.633-.633-.633v-.04h-.04l-9.662-9.654v-.032h-.04L12 1l-.633.633h-.04v.04l-9.662 9.653h-.032v.033L1 12l.633.633v.032h.032l9.661 9.661v.041zM12 14.678a2.679 2.679 0 11.001-5.357A2.679 2.679 0 0112 14.678zm.665 1.282a4.024 4.024 0 003.295-3.295h4.469l-7.764 7.772V15.96zm3.295-4.634a4.024 4.024 0 00-3.295-3.294V3.563l7.764 7.763h-4.47zm-4.634-3.294a4.024 4.024 0 00-3.294 3.294H3.563l7.763-7.763v4.47zm-3.294 4.633a4.024 4.024 0 003.294 3.295v4.469l-7.763-7.764h4.47z" fill="#FAC420"/><path d="M11.326 22.367h.041L12 23l.633-.633h.04v-.04l9.653-9.662h.041v-.04l.633-.633-.633-.633v-.04h-.04l-9.662-9.654v-.032h-.04L12 1l-.633.633h-.04v.04l-9.662 9.653h-.032v.033L1 12l.633.633v.032h.032l9.661 9.661v.041zM12 14.678a2.679 2.679 0 11.001-5.357A2.679 2.679 0 0112 14.678zm.665 1.282a4.024 4.024 0 003.295-3.295h4.469l-7.764 7.772V15.96zm3.295-4.634a4.024 4.024 0 00-3.295-3.294V3.563l7.764 7.763h-4.47zm-4.634-3.294a4.024 4.024 0 00-3.294 3.294H3.563l7.763-7.763v4.47zm-3.294 4.633a4.024 4.024 0 003.294 3.295v4.469l-7.763-7.764h4.47z" fill="#FAC420"/></svg>