<svg width="18" height="18" fill="none" xmlns="http://www.w3.org/2000/svg"><path fill-rule="evenodd" clip-rule="evenodd" d="M9 1.636a7.364 7.364 0 100 14.728A7.364 7.364 0 009 1.636zM0 9a9 9 0 1118 0A9 9 0 010 9z" fill="#FAC420"/><path fill-rule="evenodd" clip-rule="evenodd" d="M9 1.636a7.364 7.364 0 100 14.728A7.364 7.364 0 009 1.636zM0 9a9 9 0 1118 0A9 9 0 010 9z" fill="#FAC420"/><path fill-rule="evenodd" clip-rule="evenodd" d="M9 3.273c.452 0 .818.366.818.818v4.403l2.82 1.41a.818.818 0 11-.731 1.464L8.634 9.732A.818.818 0 018.182 9V4.09c0-.451.366-.817.818-.817z" fill="#FAC420"/><path fill-rule="evenodd" clip-rule="evenodd" d="M9 3.273c.452 0 .818.366.818.818v4.403l2.82 1.41a.818.818 0 11-.731 1.464L8.634 9.732A.818.818 0 018.182 9V4.09c0-.451.366-.817.818-.817z" fill="#FAC420"/></svg>