<svg width="24" height="24" fill="none" xmlns="http://www.w3.org/2000/svg"><path fill-rule="evenodd" clip-rule="evenodd" d="M12 4.636a7.364 7.364 0 100 14.728 7.364 7.364 0 000-14.728zM3 12a9 9 0 1118 0 9 9 0 01-18 0z" fill="#FAC420"/><path fill-rule="evenodd" clip-rule="evenodd" d="M12 4.636a7.364 7.364 0 100 14.728 7.364 7.364 0 000-14.728zM3 12a9 9 0 1118 0 9 9 0 01-18 0z" fill="#FAC420"/><path fill-rule="evenodd" clip-rule="evenodd" d="M12 6.273c.452 0 .818.366.818.818v4.403l2.82 1.41a.818.818 0 11-.731 1.464l-3.273-1.636a.818.818 0 01-.452-.732V7.09c0-.451.366-.817.818-.817z" fill="#FAC420"/><path fill-rule="evenodd" clip-rule="evenodd" d="M12 6.273c.452 0 .818.366.818.818v4.403l2.82 1.41a.818.818 0 11-.731 1.464l-3.273-1.636a.818.818 0 01-.452-.732V7.09c0-.451.366-.817.818-.817z" fill="#FAC420"/></svg>