<svg width="348" height="30" fill="none" xmlns="http://www.w3.org/2000/svg"><path d="M5.815.484c.484 0 .726.242.726.726v11.612L18.655.969c.485-.242.727-.484 1.454-.484h6.541c.485 0 .727.484.242.726l-12.84 12.096 13.567 15.726c.242.484.242.726-.242.726h-6.541c-.485 0-.97-.242-1.454-.484l-9.933-12.34-3.15 2.42v9.677c0 .484-.242.726-.727.726H.727c-.485 0-.727-.242-.727-.726V1.21C0 .726.242.484.727.484h5.088zm52.574 0c.484 0 .727.242.727.726v4.354c0 .484-.243.726-.727.726H42.157v5.565H56.45c.484 0 .727.242.727.726v4.354c0 .484-.243.726-.727.726H42.157v6.29h16.716c.485 0 .727.242.727.726v4.355c0 .484-.242.726-.727.726H36.584c-.484 0-.727-.242-.727-.726V1.21c0-.484.485-.726.727-.726H58.39zm25.438 15.484c3.392 0 5.088-1.936 5.088-4.839 0-2.903-1.938-4.839-5.088-4.839h-7.752v9.678h7.752zm0-15.484c6.542 0 11.387 4.597 11.387 10.645 0 6.29-4.845 10.887-11.387 10.887h-7.752v7.016c0 .484-.243.726-.727.726h-4.846c-.484 0-.727-.242-.727-.726V1.21c0-.484.243-.726.727-.726h13.325zm24.469 17.903h10.176L113.626 6.29h-.484l-4.846 12.097zm12.356 5.564h-14.778l-1.939 5.081c-.242.484-.484.726-.969.726h-5.33c-.484 0-.727-.242-.484-.726L109.75.968c0-.242.484-.484.727-.484h6.057c.242 0 .484.242.727.484l12.113 28.064c.242.484 0 .968-.484.968h-5.088c-.485 0-.969-.242-1.212-.726l-1.938-5.323zM169.107.484c.485 0 .727.242.727.726v27.822c0 .484-.242.726-.727.726h-4.845c-.485 0-.727-.242-.727-.726V18.387l.242-7.984h-.242l-4.361 11.13-3.392 7.741c-.242.242-.484.484-.969.484h-3.392c-.484 0-.727-.242-.969-.484l-3.149-7.742-4.361-11.129h-.243l.243 7.984v10.645c0 .484-.243.726-.727.726h-4.603c-.485 0-.727-.242-.727-.726V1.21c0-.484.242-.726.727-.726h6.299c.484 0 .726.242.969.484l4.361 9.919 4.361 10.887h.242l4.361-10.887 4.119-9.92c.242-.241.484-.483.969-.483h5.814zm15.262 14.758c0 5.322 3.877 9.194 9.207 9.194 5.33 0 9.206-3.872 9.206-9.194 0-5.323-3.876-9.194-9.206-9.194-5.572-.242-9.207 3.63-9.207 9.194zM193.576 0c8.479 0 15.505 6.532 15.505 15 0 8.71-7.026 15-15.505 15-8.48 0-15.506-6.532-15.506-15s6.784-15 15.506-15zm46.033.484c.484 0 .727.242.727.726v4.354c0 .484-.243.726-.727.726h-9.449v22.742c0 .484-.242.726-.727.726h-4.845c-.485 0-.727-.242-.727-.726V6.29h-9.449c-.484 0-.726-.242-.726-.726V1.21c0-.484.242-.726.726-.726h25.197zm31.253 0c.484 0 .726.242.726.726v4.354c0 .484-.242.726-.726.726h-16.233v5.565h14.294c.485 0 .727.242.727.726v4.354c0 .484-.242.726-.727.726h-14.294v6.29h16.717c.485 0 .727.242.727.726v4.355c0 .484-.242.726-.727.726h-22.289c-.485 0-.727-.242-.727-.726V1.21c0-.484.485-.726.727-.726h21.805zm16.716 0c.485 0 .727.242.727.726v11.612L300.419.969c.484-.242.727-.484 1.453-.484h6.542c.484 0 .727.484.242.726l-12.84 12.096 13.567 15.726c.242.484.242.726-.242.726h-6.542c-.484 0-.969-.242-1.453-.484l-9.934-12.339-3.149 2.42v9.677c0 .484-.243.726-.727.726h-4.846c-.484 0-.726-.242-.726-.726V1.21c0-.484.242-.726.726-.726h5.088zm39.25 17.903h10.175L332.158 6.29h-.485l-4.845 12.097zm12.356 5.564h-14.779l-1.938 5.081c-.243.484-.485.726-.969.726h-5.33c-.485 0-.727-.242-.485-.726L328.281.968c0-.242.485-.484.727-.484h6.057c.242 0 .484.242.727.484l12.113 28.064c.243.484 0 .968-.484.968h-5.088c-.485 0-.969-.242-1.211-.726l-1.938-5.323z" fill="#333"/></svg>