<svg width="24" height="24" fill="none" xmlns="http://www.w3.org/2000/svg"><path fill-rule="evenodd" clip-rule="evenodd" d="M12 3.667a6.273 6.273 0 00-4.525 1.952A6.81 6.81 0 005.6 10.333c0 2.582 1.613 5.087 3.38 7.031a23.918 23.918 0 003.02 2.78 23.915 23.915 0 003.02-2.78c1.767-1.944 3.38-4.449 3.38-7.03a6.81 6.81 0 00-1.874-4.715A6.273 6.273 0 0012 3.667zm0 17.5l-.444.693-.002-.002-.006-.003-.018-.013a15.014 15.014 0 01-.308-.226 25.54 25.54 0 01-3.403-3.105C5.987 16.497 4 13.585 4 10.333c0-2.21.843-4.33 2.343-5.892C7.843 2.878 9.878 2 12 2s4.157.878 5.657 2.44C19.157 6.005 20 8.124 20 10.334c0 3.252-1.987 6.164-3.82 8.178a25.545 25.545 0 01-3.402 3.105 15.235 15.235 0 01-.308.226l-.018.013-.005.003-.002.002-.445-.693zm0 0l.444.693a.774.774 0 01-.888 0l.444-.693z" fill="#FAC420"/><path fill-rule="evenodd" clip-rule="evenodd" d="M12 3.667a6.273 6.273 0 00-4.525 1.952A6.81 6.81 0 005.6 10.333c0 2.582 1.613 5.087 3.38 7.031a23.918 23.918 0 003.02 2.78 23.915 23.915 0 003.02-2.78c1.767-1.944 3.38-4.449 3.38-7.03a6.81 6.81 0 00-1.874-4.715A6.273 6.273 0 0012 3.667zm0 17.5l-.444.693-.002-.002-.006-.003-.018-.013a15.014 15.014 0 01-.308-.226 25.54 25.54 0 01-3.403-3.105C5.987 16.497 4 13.585 4 10.333c0-2.21.843-4.33 2.343-5.892C7.843 2.878 9.878 2 12 2s4.157.878 5.657 2.44C19.157 6.005 20 8.124 20 10.334c0 3.252-1.987 6.164-3.82 8.178a25.545 25.545 0 01-3.402 3.105 15.235 15.235 0 01-.308.226l-.018.013-.005.003-.002.002-.445-.693zm0 0l.444.693a.774.774 0 01-.888 0l.444-.693z" fill="#FAC420"/><path fill-rule="evenodd" clip-rule="evenodd" d="M12 8a2 2 0 100 4 2 2 0 000-4zm-4 2a4 4 0 118 0 4 4 0 01-8 0z" fill="#FAC420"/><path fill-rule="evenodd" clip-rule="evenodd" d="M12 8a2 2 0 100 4 2 2 0 000-4zm-4 2a4 4 0 118 0 4 4 0 01-8 0z" fill="#FAC420"/></svg>