<svg width="360" height="142" fill="none" xmlns="http://www.w3.org/2000/svg"><path d="M88.19 100.132l50.034-49.89L88.19.355 38.156 50.243l50.034 49.889zm41.44-49.89l-18.684 18.63-18.459-18.63 18.459-18.628 18.684 18.629zm-82.842 0L65.47 31.615l18.46 18.629-18.46 18.629-18.683-18.63zm41.402 4.323l14.349 14.493H73.841l14.35-14.493zM73.841 31.427h28.698L88.19 45.921 73.841 31.427zm30.828 43.667L88.19 91.525l-16.479-16.43h32.958zm-32.92-49.74L88.19 8.924l16.479 16.43h-32.92zm-24.681 116.19L-2.966 91.655-53 141.544l50.034 49.889 50.034-49.889zm-50.034-41.319l18.683 18.629-18.683 18.406-18.683-18.406 18.683-18.629zm0 82.601l-18.683-18.629 18.683-18.405 18.683 18.405-18.683 18.629zm4.335-41.282l14.535-14.307v28.614L1.37 141.544zm-23.205 14.307v-28.614l14.535 14.307-14.535 14.307zm43.794-30.738l16.478 16.431-16.478 16.431v-32.862zm-49.885 32.825l-16.479-16.394 16.48-16.431-.001 32.825zM321.418 50.34L271.384.45 221.35 50.34l50.034 49.889 50.034-49.89zM271.384 9.02l18.683 18.63-18.683 18.405-18.683-18.405 18.683-18.63zm0 82.602l-18.683-18.63 18.683-18.405 18.683 18.406-18.683 18.629zm22.831-59.8l18.571 18.518-18.552 18.498-18.571-18.517 18.552-18.499zm-45.699 37.035L229.944 50.34l18.59-18.536 18.572 18.517-18.59 18.536zm27.236 117.77l-50.034-49.889-50.034 49.889 50.034 49.889 50.034-49.889zm-50.034-41.32l18.684 18.63-18.684 18.405-18.683-18.406 18.683-18.629zm0 82.602l-18.683-18.629 18.683-18.406 18.683 18.406-18.683 18.629zm4.335-41.282l14.535-14.307v28.614l-14.535-14.307zm-23.205 14.307V172.32l14.536 14.307-14.536 14.307zm43.794-30.738l16.478 16.431-16.478 16.431v-32.862zm-49.885 32.824l-16.479-16.393 16.479-16.431v32.824z" fill="#FFDE00"/><path d="M176.693 96.909h.187l2.877 2.869 2.877-2.87h.187v-.186l43.906-43.815h.187v-.186l2.877-2.87-2.877-2.868v-.187h-.187L182.784 3.018v-.15h-.187L179.757 0l-2.877 2.869h-.187v.186L132.75 46.834h-.15v.149l-2.877 2.906 2.877 2.869v.149h.15l43.943 43.816v.186zm3.064-34.874c-6.726 0-12.181-5.44-12.181-12.146 0-6.707 5.455-12.146 12.181-12.146 6.726 0 12.182 5.44 12.182 12.146s-5.456 12.146-12.182 12.146zm3.027 5.812c7.66-1.266 13.676-7.302 14.984-14.94h20.327l-35.311 35.246V67.847zm14.984-21.013c-1.271-7.638-7.324-13.637-14.984-14.94v-20.27l35.311 35.21h-20.327zm-21.075-14.94c-7.66 1.266-13.676 7.302-14.984 14.94h-20.327l35.311-35.21v20.27zm-14.984 21.013c1.27 7.638 7.324 13.636 14.984 14.94v20.269l-35.311-35.21h20.327zm250.805-2.273L362.48.745l-50.034 49.889 50.034 49.889 50.034-49.889zm-47.007 13.935V53.652h10.948l12.182 12.146-10.949 10.917-12.181-12.146zm10.948-16.99h-10.948v-10.88l12.181-12.146 10.949 10.917-12.182 12.109zm-17.039-10.88v10.917h-10.911l-12.219-12.183 10.949-10.917 12.181 12.183zm-10.911 16.953h10.949v10.917l-12.182 12.146-10.948-10.917 12.181-12.146zM362.48 70.12l10.949 10.917-10.949 10.916-10.948-10.916L362.48 70.12zm19.543-19.486l10.948-10.917 10.949 10.917-10.949 10.917-10.948-10.917zm-8.632-30.403l-10.948 10.917-10.949-10.917L362.48 9.315l10.911 10.916zm-30.454 30.403l-10.948 10.917-10.948-10.917 10.948-10.917 10.948 10.917zm-21.597 90.538l-50.034-49.89-50.034 49.89 50.034 49.889 50.034-49.889zm-47.008 13.934V144.19h10.949l12.181 12.146-10.948 10.916-12.182-12.146zm10.949-16.989h-10.949v-10.88l12.182-12.146 10.948 10.917-12.181 12.109zm-17.04-10.88v10.917H257.33l-12.219-12.184 10.949-10.916 12.181 12.183zM257.33 144.19h10.949v10.916l-12.182 12.146-10.948-10.916 12.181-12.146zm13.976 16.468l10.948 10.916-10.948 10.917-10.949-10.917 10.949-10.916zm19.542-19.486l10.949-10.917 10.948 10.917-10.948 10.916-10.949-10.916zm-8.631-30.403l-10.949 10.917-10.948-10.917 10.986-10.917 10.911 10.917zm-30.454 30.403l-10.949 10.916-10.948-10.916 10.948-10.917 10.949 10.917z" fill="#FFDE00"/><path d="M184.204 95.717l-50.034-49.89-50.034 49.89 50.034 49.888 50.034-49.888zm-8.632 0l-41.402 41.282-41.402-41.282 41.402-41.32 41.402 41.32z" fill="#FFDE00"/><path d="M134.17 130.404l34.788-34.687-34.788-34.688-34.789 34.688 34.789 34.687zm26.156-34.687l-26.156 26.08-26.157-26.08 26.157-26.081 26.156 26.08z" fill="#FFDE00"/><path d="M134.17 115.203l19.543-19.486L134.17 76.23l-19.543 19.486 19.543 19.486zm10.911-19.486l-10.949 10.916-10.948-10.916L134.132 84.8l10.949 10.917zm-102.46 19.486l10.949 10.916 4.297-4.284-10.948-10.917 15.245-15.201L46.92 80.515 57.867 69.6l-4.297-4.285L42.62 76.23 31.673 65.314l-4.297 4.285 10.948 10.916L23.08 95.717l15.245 15.201-10.948 10.917 4.297 4.284 10.948-10.916zm0-8.607L31.673 95.679 42.62 84.763l10.95 10.916-10.95 10.917z" fill="#FFDE00"/><path d="M135.366 138.303v-.037h-.038L91.385 94.45v-.187h-.187L42.584 45.828-7.413 95.717 40.79 143.78v.223h.225l44.28 44.151v.149h.149l2.877 2.869 2.877-2.869h.187v-.186l43.943-43.778h.038v-.038l2.989-2.98-2.989-3.018zm-47.045-21.312c1.681 0 3.064 1.379 3.064 3.055 0 1.677-1.383 3.055-3.064 3.055-1.682 0-3.064-1.378-3.064-3.055.037-1.714 1.382-3.055 3.064-3.055zm3.064 24.292c0 1.677-1.383 3.056-3.064 3.056-1.682 0-3.064-1.379-3.064-3.056 0-1.676 1.382-3.055 3.064-3.055 1.681.038 3.064 1.379 3.064 3.055zm-6.09-29.843c-3.55 1.266-6.092 4.62-6.092 8.569a9.08 9.08 0 006.091 8.569v4.099a9.059 9.059 0 00-5.418 5.179h-4.372a9.111 9.111 0 00-8.482-5.701 9.168 9.168 0 00-8.482 5.701h-8.184l34.938-34.837v8.421zm-15.246 29.843c0 1.677-1.383 3.056-3.065 3.056-1.681 0-3.064-1.379-3.064-3.056 0-1.676 1.383-3.055 3.064-3.055 1.682.038 3.065 1.379 3.065 3.055zm-27.428-4.284L1.22 95.717l41.402-41.283 41.403 41.283-41.403 41.282zm42.673 42.549L49.61 143.966h8.669c1.158 3.726 4.633 6.446 8.744 6.446 4.11 0 7.585-2.72 8.744-6.446h3.848a9.253 9.253 0 005.68 5.924v4.099c-3.55 1.266-6.09 4.62-6.09 8.569a9.08 9.08 0 006.09 8.569v8.421zm3.027-13.935c-1.682 0-3.064-1.378-3.064-3.055 0-1.677 1.382-3.055 3.064-3.055 1.681 0 3.064 1.378 3.064 3.055 0 1.677-1.383 3.055-3.064 3.055zm3.064 13.935v-8.383c3.55-1.267 6.09-4.62 6.09-8.57a9.08 9.08 0 00-6.09-8.569v-4.099c2.728-.968 4.858-3.167 5.68-5.924h3.848c1.159 3.726 4.634 6.446 8.744 6.446 3.961 0 7.361-2.534 8.595-6.073h8.407l-35.274 35.172zm15.246-38.265c0-1.676 1.382-3.055 3.064-3.055 1.681 0 3.064 1.379 3.064 3.055 0 1.677-1.383 3.056-3.064 3.056a3.05 3.05 0 01-3.064-3.056zm11.658-3.017c-1.271-3.54-4.634-6.074-8.594-6.074-3.849 0-7.1 2.385-8.483 5.701H96.84a9.059 9.059 0 00-5.418-5.179v-4.098c3.55-1.267 6.091-4.62 6.091-8.57a9.08 9.08 0 00-6.09-8.569v-8.383l35.273 35.172h-8.407zm225.134 3.278l-10.948 10.917 4.297 4.285 10.948-10.917 15.246 15.201 15.246-15.201 10.948 10.917 4.297-4.285-10.948-10.917 10.948-10.916-4.297-4.285-10.948 10.917-15.246-15.202-15.246 15.202-10.948-10.917-4.297 4.285 10.948 10.916zm8.632 0l10.948-10.916 10.949 10.916-10.949 10.917-10.948-10.917z" fill="#FFDE00"/><path d="M320.256 234.019h.037v-.037l43.943-43.816h.187v-.186L413 141.507l-50.034-49.852-48.203 48.064h-.224v.223l-44.28 44.151h-.149v.149l-2.877 2.869 2.877 2.869v.186h.187l43.905 43.816v.037h.038l2.989 2.981 3.027-2.981zm21.374-46.908c0 1.677-1.383 3.055-3.064 3.055-1.682 0-3.064-1.378-3.064-3.055 0-1.676 1.382-3.055 3.064-3.055 1.718.037 3.064 1.379 3.064 3.055zm-24.363 3.055c-1.682 0-3.065-1.378-3.065-3.055 0-1.676 1.383-3.055 3.065-3.055 1.681 0 3.064 1.379 3.064 3.055-.038 1.677-1.383 3.055-3.064 3.055zm29.93-6.073c-1.27-3.539-4.633-6.073-8.594-6.073-3.961 0-7.361 2.534-8.594 6.073h-4.111a9.055 9.055 0 00-5.194-5.402v-4.359a9.086 9.086 0 005.717-8.458c0-3.838-2.391-7.116-5.717-8.458v-8.159l34.938 34.836h-8.445zm-29.93-15.201c-1.682 0-3.065-1.379-3.065-3.055 0-1.677 1.383-3.056 3.065-3.056 1.681 0 3.064 1.379 3.064 3.056-.038 1.676-1.383 3.055-3.064 3.055zm4.297-27.348l41.402-41.282 41.402 41.282-41.402 41.282-41.402-41.282zm-42.673 42.549l35.685-35.581v8.643c-3.737 1.155-6.464 4.621-6.464 8.719 0 4.098 2.727 7.563 6.464 8.718v3.838a9.255 9.255 0 00-5.941 5.663h-4.11c-1.271-3.539-4.634-6.073-8.595-6.073-3.961 0-7.361 2.534-8.594 6.073h-8.445zm13.975 3.018c0-1.676 1.383-3.055 3.064-3.055 1.682 0 3.064 1.379 3.064 3.055 0 1.677-1.382 3.055-3.064 3.055-1.681 0-3.064-1.378-3.064-3.055zm-13.975 3.055h8.407c1.271 3.54 4.634 6.073 8.595 6.073 3.961 0 7.361-2.533 8.594-6.073h4.11c.972 2.72 3.177 4.844 5.942 5.664v3.837c-3.737 1.155-6.465 4.62-6.465 8.719a9.08 9.08 0 006.091 8.569v8.383l-35.274-35.172zm38.376 15.202c1.681 0 3.064 1.378 3.064 3.055 0 1.677-1.383 3.055-3.064 3.055-1.682 0-3.065-1.378-3.065-3.055a3.05 3.05 0 013.065-3.055zm3.026 11.624c3.55-1.266 6.091-4.62 6.091-8.569 0-3.838-2.391-7.079-5.717-8.458v-4.359a9.057 9.057 0 005.194-5.402h4.11c1.271 3.539 4.634 6.073 8.595 6.073 3.96 0 7.361-2.534 8.594-6.073h8.407l-35.274 35.171v-8.383zM-6.03 97.281h.187l2.877 2.869 2.877-2.869h.187v-.186L44.004 53.28h.187v-.186l2.877-2.869-2.877-2.869v-.186h-.187L.06 3.391v-.15h-.187L-2.966.373-5.843 3.24h-.187v.187l-43.943 43.778h-.15v.15L-53 50.26l2.877 2.87v.148h.15L-6.03 97.095v.186zm3.064-34.873c-6.726 0-12.182-5.44-12.182-12.147 0-6.706 5.456-12.146 12.182-12.146s12.182 5.44 12.182 12.146c0 6.707-5.456 12.147-12.182 12.147zM.061 68.22c7.66-1.267 13.676-7.303 14.984-14.94h20.327L.061 88.525V68.22zm14.984-21.014C13.775 39.568 7.72 33.57.06 32.266V11.997l35.311 35.21H15.045zM-6.03 32.266c-7.66 1.267-13.676 7.302-14.984 14.94h-20.328L-6.03 11.997v20.269zm-14.984 21.013c1.27 7.638 7.324 13.637 14.984 14.94v20.27l-35.312-35.21h20.328zm243.668 89.458h.187l2.877 2.868 2.877-2.868h.187v-.187l43.906-43.816h.15v-.186l2.877-2.869-2.877-2.869v-.186h-.187l-43.906-43.778v-.15h-.187l-2.84-2.868-2.877 2.869h-.187v.186L178.748 92.66h-.187v.187l-2.877 2.869 2.877 2.868v.15h.15l43.943 43.815v.187zm3.064-29.844l-17.263-17.176 17.263-17.214 17.264 17.214-17.264 17.176zm3.027 5.551l19.767-19.71h15.544l-35.311 35.247v-15.537zm19.767-25.783l-19.767-19.71V57.453l35.311 35.21h-15.544zm-25.858-19.71l-19.767 19.71h-15.544l35.311-35.209v15.5zm-19.767 25.784l19.767 19.709v15.5l-35.311-35.21h15.544z" fill="#FFDE00"/><path d="M366.89 96.09L316.893 46.2l-50.034 49.89 50.034 49.888 49.997-49.889zm-8.595 0l-41.402 41.281-41.44-41.282 41.44-41.282 41.402 41.282z" fill="#FFDE00"/><path d="M335.165 114.308V77.833h-36.582v36.475h36.582zm-30.491-6.073v-24.33h24.4v24.33h-24.4zm-127.607 79.957h.187l2.877 2.869 2.877-2.869h.187v-.187l43.906-43.815h.187v-.187l2.877-2.869-2.877-2.868v-.187h-.187l-43.944-43.778v-.15h-.186l-2.84-2.868-2.877 2.869h-.187v.186l-43.943 43.779h-.15v.186l-2.877 2.869 2.877 2.869v.186h.187l43.943 43.816v.149h-.037zm15.245-59.204v24.33h-24.4v-24.33h24.4zm-9.155 30.403h15.246V144.19h20.066l-35.312 35.246v-20.045zm15.246-21.274v-15.202h-15.246v-20.008l35.312 35.21h-20.066zm-21.336-15.202h-15.246v15.202h-20.066l35.312-35.21v20.008zm-15.246 21.275v15.201h15.246v20.008l-35.312-35.209h20.066z" fill="#FFDE00"/><path d="M184.166 186.627l-49.996-49.889-50.034 49.889 50.034 49.889 49.996-49.889zm-8.594 0l-41.402 41.282-41.44-41.282 41.44-41.282 41.402 41.282z" fill="#FFDE00"/><path d="M152.442 204.846V168.37H115.86v36.476h36.582zm-30.491-6.073v-24.33h24.4v24.33h-24.4zm-82.394 35.246h.187l2.877 2.869 2.878-2.869h.186v-.186l43.906-43.816h.15v-.186l2.877-2.869-2.877-2.869v-.186h-.187l-43.906-43.779v-.149h-.187l-2.84-2.868-2.877 2.868h-.187v.187l-43.906 43.778h-.186v.186l-2.878 2.869 2.878 2.869v.149h.15l43.942 43.816v.186zm3.064-29.844l-17.263-17.176 17.263-17.213 17.264 17.213-17.264 17.176zm3.027 5.552l19.767-19.71H80.96l-35.312 35.247v-15.537zm19.767-25.783l-19.767-19.709v-15.5l35.312 35.209H65.415zm-25.858-19.709L19.79 183.944H4.246l35.311-35.209v15.5zM19.79 190.017l19.767 19.71v15.499L4.246 190.017H19.79z" fill="#FFDE00"/></svg>