<svg width="307" height="600" fill="none" xmlns="http://www.w3.org/2000/svg"><path d="M164.774 452.142l-82.096-82.126L.582 452.142l82.096 82.126 82.096-82.126zm-82.096-68.019l30.656 30.667-30.656 30.299-30.655-30.299 30.655-30.667zm0 135.976l-30.655-30.666 30.655-30.299 30.656 30.299-30.656 30.666zm7.112-67.957l23.85-23.552v47.104l-23.85-23.552zm-38.074 23.552V428.59l23.85 23.552-23.85 23.552zm71.857-50.6l27.038 27.048-27.038 27.048v-54.096zm-81.85 54.035l-27.039-26.987 27.038-27.048v54.035zm191.198 40.51l-82.096 82.126 82.096 82.126 82.096-82.126-82.096-82.126zm-67.994 82.126l30.655-30.667 30.288 30.667-30.288 30.667-30.655-30.667zm135.927 0l-30.656 30.667-30.288-30.667 30.288-30.667 30.656 30.667zm-67.933-7.115l-23.544-23.858h47.087l-23.543 23.858zm23.543 38.089h-47.087l23.544-23.859 23.543 23.859zm-50.581-71.883l27.038-27.048 27.038 27.048h-54.076zm54.015 81.88l-26.977 27.048-27.038-27.048h54.015zM82.838 69.322L.742 151.448l82.096 82.126 82.095-82.126-82.095-82.126zm-67.994 82.126l30.655-30.667 30.288 30.667-30.288 30.667-30.655-30.667zm135.926 0l-30.655 30.667-30.288-30.667 30.288-30.667 30.655 30.667zm-98.404-37.475L82.838 83.49l30.441 30.452-30.472 30.483-30.441-30.452zm60.943 75.011l-30.471 30.483-30.503-30.514 30.472-30.482 30.502 30.513zm193.798-44.706l-82.095 82.126 82.095 82.125 82.096-82.125-82.096-82.126zm-67.994 82.126l30.656-30.667 30.288 30.667-30.288 30.667-30.656-30.667zm135.927 0l-30.655 30.667-30.288-30.667 30.288-30.667 30.655 30.667zm-67.933-7.115l-23.543-23.859h47.087l-23.544 23.859zm23.544 38.088h-47.087l23.543-23.859 23.544 23.859zm-50.582-71.883l27.038-27.048 27.039 27.048h-54.077zm54.015 81.881l-26.977 27.048-27.038-27.048h54.015z" fill="#FFDE00"/><path d="M159.47 306.873v-.306l4.721-4.723-4.721-4.723v-.306h-.306l-72.102-72.067v-.307h-.307l-4.72-4.723-4.722 4.723h-.306v.307l-72.04 72.128H4.72v.307L0 301.844l4.721 4.723v.306h.307l72.04 72.129v.245h.245l4.783 4.723 4.72-4.723h.246v-.245l72.102-72.129h.306zm-57.387-5.029c0 11.04-8.951 19.995-19.987 19.995-11.036 0-19.988-8.955-19.988-19.995 0-11.04 8.952-19.995 19.988-19.995s19.987 8.955 19.987 19.995zm9.565-4.968c-2.085-12.573-12.017-22.448-24.586-24.595v-33.365l58 57.96h-33.414zm-34.58-24.595c-12.569 2.086-22.44 12.022-24.586 24.595H19.13l57.94-57.96v33.365zm-24.586 34.592c2.085 12.574 12.017 22.448 24.586 24.595v33.366L19.13 306.873h33.353zm34.58 24.595c12.569-2.085 22.44-12.021 24.586-24.595h33.353l-57.94 57.961v-33.366zm-3.74-411.671L1.226 1.923l82.096 82.126 82.095-82.126-82.095-82.126zm22.93 77.158H88.288v-17.97l19.987-19.996L126.24-23.04 106.252-3.045zm-27.958-17.97v17.97H60.392L40.404-23.04l17.964-17.97 19.926 19.994zM60.392 6.951h17.964v17.91l-20.05 20.056-17.963-17.97L60.39 6.951zm27.896 17.91V6.89h17.964l19.988 19.995-17.965 17.97-19.987-19.994zm27.1-22.94l17.964-17.97 17.964 17.97-17.964 17.972-17.964-17.971zM83.322-30.153L65.358-48.126l17.964-17.971 17.964 17.97-17.964 17.971zm-50.03 14.168l17.964 17.97-17.964 17.971L15.328 1.923l17.964-17.91zM83.322 34l17.964 17.971-17.964 17.97-17.964-17.97 17.964-17.97zm148.986 35.451l-82.096 82.126 82.096 82.125 82.095-82.125-82.095-82.126zm22.93 77.158h-17.964v-17.971l19.987-19.995 17.965 17.971-19.988 19.995zm-27.958-17.971v17.971h-17.903l-19.987-19.995 17.964-17.971 19.926 19.995zm-17.903 27.968h17.965v17.91l-20.049 20.056-17.964-17.971 20.048-19.995zm27.897 17.91v-17.971h17.964l19.988 19.995-17.965 17.97-19.987-19.994zm27.1-22.939l17.964-17.971 17.964 17.971-17.964 17.971-17.964-17.971zm-32.066-32.078l-17.964-17.97 17.964-17.971 17.964 17.971-17.964 17.97zm-50.03 14.168l17.964 17.971-17.964 17.971-17.964-18.032 17.964-17.91zm50.03 49.987l17.964 17.971-17.964 17.971-17.964-17.971 17.964-17.971z" fill="#FFDE00"/><path d="M157.508 294.545l-82.095 82.126 82.095 82.126 82.096-82.126-82.096-82.126zm0 14.168l67.933 67.958-67.933 67.958-67.994-67.958 67.994-67.958z" fill="#FFDE00"/><path d="M214.589 376.671l-57.081-57.102-57.08 57.102 57.08 57.101 57.081-57.101zm-57.081-42.934l42.918 42.934-42.918 42.933-42.918-42.933 42.918-42.934z" fill="#FFDE00"/><path d="M189.574 376.671l-32.066-32.077-32.065 32.077 32.065 32.077 32.066-32.077zm-32.066-17.909l17.964 17.97-17.964 17.971-17.964-17.971 17.964-17.97zm32.066 168.176l17.964-17.971-7.051-7.053-17.964 17.971-25.015-25.024-25.015 25.024-17.964-17.971-7.051 7.053 17.965 17.971-17.965 17.971 7.051 7.053 17.964-17.97 25.015 25.024 25.015-25.024 17.964 17.97 7.051-7.053-17.964-17.971zm-14.163 0l-17.964 17.971-17.964-17.971 17.964-17.971 17.964 17.971z" fill="#FFDE00"/><path d="M227.587 374.708h-.061v.062l-72.102 72.128h-.307v.307L75.413 527l82.095 82.064 79.092-79.12h.368v-.368l72.653-72.681h.245v-.245l4.721-4.723-4.721-4.722v-.307h-.306l-72.041-72.128v-.062h-.061l-4.905-4.906-4.966 4.906zm-35.07 77.219c0-2.76 2.268-5.029 5.027-5.029 2.759 0 5.028 2.269 5.028 5.029s-2.269 5.03-5.028 5.03c-2.82-.062-5.027-2.27-5.027-5.03zm39.975-5.029c2.759 0 5.027 2.269 5.027 5.029s-2.268 5.03-5.027 5.03c-2.759 0-5.028-2.27-5.028-5.03.062-2.76 2.269-5.029 5.028-5.029zm-49.11 9.997c2.084 5.827 7.602 9.998 14.101 9.998a14.942 14.942 0 0014.102-9.998h6.744a14.888 14.888 0 008.522 8.894v7.176a14.955 14.955 0 00-9.38 13.922c0 6.318 3.923 11.715 9.38 13.923v13.432l-57.326-57.347h13.857zm49.11 25.024c2.759 0 5.027 2.27 5.027 5.03 0 2.76-2.268 5.029-5.027 5.029-2.759 0-5.028-2.269-5.028-5.029.062-2.76 2.269-5.03 5.028-5.03zm-7.051 45.019l-67.933 67.958-67.932-67.958 67.932-67.957 67.933 67.957zm70.017-70.043l-58.552 58.574v-14.23c6.131-1.901 10.607-7.605 10.607-14.352 0-6.746-4.476-12.45-10.607-14.352v-6.317a15.21 15.21 0 009.749-9.323h6.744c2.084 5.827 7.602 9.998 14.101 9.998a14.941 14.941 0 0014.102-9.998h13.856zm-22.93-4.968c0 2.76-2.269 5.03-5.028 5.03-2.759 0-5.027-2.27-5.027-5.03 0-2.76 2.268-5.029 5.027-5.029 2.759 0 5.028 2.269 5.028 5.029zm22.93-5.029h-13.795c-2.084-5.827-7.602-9.997-14.101-9.997-6.499 0-12.079 4.17-14.102 9.997h-6.744c-1.594-4.477-5.211-7.973-9.748-9.323v-6.317c6.131-1.902 10.606-7.606 10.606-14.352 0-6.502-4.169-12.083-9.993-14.107v-13.8l57.877 57.899zm-62.966-25.024c-2.759 0-5.028-2.27-5.028-5.03 0-2.76 2.269-5.029 5.028-5.029 2.759 0 5.027 2.269 5.027 5.029a5.011 5.011 0 01-5.027 5.03zm-4.966-19.136c-5.825 2.085-9.994 7.605-9.994 14.106 0 6.318 3.924 11.654 9.38 13.923v7.176a14.888 14.888 0 00-8.522 8.894h-6.744c-2.085-5.827-7.603-9.998-14.102-9.998a14.941 14.941 0 00-14.101 9.998h-13.795l57.878-57.899v13.8zm5.395-369.535l17.964 17.97 7.051-7.053-17.964-17.97 25.015-25.024-25.015-25.024 17.964-17.971-7.051-7.054-17.964 17.971-17.964-17.97-7.051 7.053L225.87-23.9 200.855 1.127 225.87 26.15l-17.964 17.97 7.051 7.054 17.964-17.97zm0-14.168l-17.964-17.97 17.964-17.971 17.964 17.97-17.964 17.971z" fill="#FFDE00"/><path d="M385.095 71.23v-.062h-.061L312.932-.96v-.306h-.307L232.86-81 150.825 1.126l79.092 79.12v.368h.368l72.653 72.68v.245h.245l4.721 4.723 4.721-4.723h.307v-.306l72.102-72.067h.061v-.061L390 76.198l-4.905-4.968zm-77.191-35.083c2.759 0 5.028 2.27 5.028 5.03 0 2.76-2.269 5.029-5.028 5.029-2.759 0-5.027-2.27-5.027-5.03.061-2.821 2.268-5.029 5.027-5.029zm5.028 39.99c0 2.76-2.269 5.029-5.028 5.029-2.759 0-5.027-2.27-5.027-5.03 0-2.76 2.268-5.029 5.027-5.029 2.759.061 5.028 2.27 5.028 5.03zm-9.994-49.129c-5.824 2.086-9.994 7.606-9.994 14.107 0 6.502 4.17 12.083 9.994 14.107v6.746c-4.046 1.411-7.296 4.54-8.89 8.526h-7.173a14.951 14.951 0 00-13.918-9.384c-6.315 0-11.71 3.925-13.918 9.384h-13.427l57.326-57.347v13.861zm-25.015 49.129c0 2.76-2.268 5.029-5.027 5.029-2.759 0-5.028-2.27-5.028-5.03 0-2.76 2.269-5.029 5.028-5.029 2.759.061 5.027 2.27 5.027 5.03zm-45.002-7.054L164.988 1.126l67.933-67.958 67.933 67.958-67.933 67.957zm70.017 70.043l-58.552-58.573h14.224c1.901 6.133 7.603 10.61 14.347 10.61s12.446-4.477 14.347-10.61h6.315a15.209 15.209 0 009.319 9.752v6.746c-5.824 2.086-9.994 7.606-9.994 14.107 0 6.501 4.17 12.083 9.994 14.107v13.861zm4.966-22.939c-2.759 0-5.027-2.269-5.027-5.029s2.268-5.029 5.027-5.029c2.759 0 5.028 2.269 5.028 5.029s-2.269 5.029-5.028 5.029zm5.028 22.939v-13.8c5.824-2.085 9.994-7.605 9.994-14.107 0-6.501-4.17-12.082-9.994-14.106v-6.747c4.476-1.595 7.97-5.213 9.319-9.752h6.315c1.901 6.133 7.603 10.61 14.347 10.61 6.499 0 12.078-4.17 14.102-9.997h13.795l-57.878 57.899zm25.015-62.99c0-2.76 2.268-5.029 5.027-5.029 2.759 0 5.028 2.27 5.028 5.03 0 2.76-2.269 5.029-5.028 5.029a5.012 5.012 0 01-5.027-5.03zm19.129-4.968c-2.085-5.826-7.603-9.997-14.102-9.997-6.315 0-11.649 3.926-13.917 9.384h-7.174c-1.594-3.987-4.843-7.115-8.89-8.525v-6.747c5.825-2.085 9.994-7.605 9.994-14.107 0-6.5-4.169-12.082-9.994-14.106v-13.8l57.878 57.898h-13.795zM160.083 606.794v-.306l4.721-4.723-4.721-4.723v-.306h-.306l-72.102-72.067v-.307h-.307l-4.72-4.723-4.722 4.723h-.306v.307L5.58 596.797h-.246v.307l-4.72 4.661 4.72 4.723v.306h.307l72.04 72.129v.245h.245l4.783 4.723 4.72-4.723h.246v-.245l72.102-72.129h.306zm-57.387-5.029c0 11.04-8.951 19.995-19.987 19.995-11.036 0-19.988-8.955-19.988-19.995 0-11.04 8.952-19.995 19.988-19.995s19.987 8.955 19.987 19.995zm9.565-4.968c-2.085-12.573-12.017-22.448-24.586-24.595v-33.365l58 57.96h-33.414zm-34.58-24.595c-12.569 2.086-22.44 12.022-24.586 24.595H19.742l57.94-57.96v33.365zm-24.586 34.592c2.085 12.574 12.017 22.449 24.586 24.595v33.366l-57.939-57.961h33.353zm34.58 24.595c12.569-2.085 22.44-12.021 24.586-24.595h33.353l-57.94 57.961v-33.366zm147.208-399.956v-.307l4.721-4.722-4.721-4.723v-.307h-.307l-72.102-72.067v-.245h-.306l-4.721-4.723-4.721 4.723h-.307v.307l-72.04 72.067h-.245v.306l-4.721 4.662 4.72 4.722v.307h.307l72.041 72.067v.307h.306l4.721 4.722 4.721-4.722h.245v-.246l72.102-72.128h.307zm-49.11-5.029l-28.265 28.336-28.325-28.336 28.325-28.336 28.265 28.336zm9.135-4.968l-32.434-32.446v-25.514l58.001 57.96h-25.567zm-42.427-32.446l-32.434 32.446H94.542l57.939-57.96v25.514zm-32.434 42.443l32.434 32.446v25.514l-57.94-57.96h25.506zm42.427 32.446l32.434-32.446h25.505l-57.939 57.96v-25.514z" fill="#FFDE00"/><path d="M158.121-5.314L76.026 76.75l82.095 82.125 82.096-82.125-82.096-82.064zm0 14.106l67.933 67.958-67.933 68.019-67.932-68.02L158.12 8.793z" fill="#FFDE00"/><path d="M188.103 46.758h-60.024v60.045h60.024V46.758zm-9.994 50.048h-40.036v-40.05h40.036v40.05zM309.682 306.26v-.307l4.721-4.722-4.721-4.723v-.307h-.306l-72.102-72.067v-.306h-.307l-4.721-4.723-4.72 4.723h-.307v.306l-72.041 72.129h-.245v.306l-4.721 4.662 4.721 4.722v.307h.307l72.04 72.128v.246h.307l4.721 4.722 4.721-4.722h.306v-.307l72.102-72.128h.245v.061zm-97.423-25.024h40.036v40.051h-40.036v-40.051zm50.03 15.027v-25.024h-25.015v-32.937l58 57.961h-32.985zm-35.009-25.024h-25.015v25.024h-32.924l57.939-57.961v32.937zm-25.015 35.021v25.024h25.015v32.936l-57.939-57.96h32.924zm35.009 25.024h25.015V306.26h32.924l-57.939 57.96v-32.936z" fill="#FFDE00"/><path d="M307.107 294.607l-82.095 82.064 82.095 82.126 82.096-82.126-82.096-82.064zm0 14.106l67.933 67.958-67.933 68.019-67.932-68.019 67.932-67.958z" fill="#FFDE00"/><path d="M337.089 346.679h-60.024v60.045h60.024v-60.045zm-9.994 50.048h-40.036v-40.051h40.036v40.051zm58 135.241v-.307l4.721-4.723-4.721-4.723v-.306h-.306l-72.102-72.067v-.245h-.307l-4.721-4.723-4.721 4.723h-.306v.306l-72.041 72.067h-.245v.307l-4.721 4.661 4.721 4.723v.307h.306l72.041 72.066v.307H303l4.72 4.723 4.721-4.723h.246v-.245l72.102-72.128h.306zm-49.11-5.03l-28.265 28.336-28.325-28.336 28.325-28.336 28.265 28.336zm9.135-4.968l-32.433-32.445V464.01l58 57.96H345.12zm-42.427-32.445l-32.434 32.445h-25.505l57.939-57.96v25.515zm-32.434 42.443l32.434 32.445v25.515l-57.939-57.96h25.505zm42.428 32.445l32.433-32.445h25.506l-57.939 57.96v-25.515z" fill="#FFDE00"/></svg>