<svg width="17" height="20" fill="none" xmlns="http://www.w3.org/2000/svg"><path d="M7.676 3.312L7.534 0 2.78 5.18l5.18 4.755-.196-4.57c1.678-.072 3.115.44 4.313 1.54 1.22 1.12 1.866 2.518 1.938 4.196.07 1.633-.454 3.06-1.574 4.28-1.12 1.221-2.507 1.878-4.162 1.971-1.656.05-3.095-.486-4.315-1.606-.967-.887-1.588-1.944-1.862-3.171a5.867 5.867 0 01.376-3.6L.958 7.582c-.86 1.586-1.141 3.279-.843 5.08.299 1.8 1.127 3.324 2.486 4.57 1.612 1.48 3.521 2.171 5.73 2.076 2.207-.094 4.06-.96 5.56-2.594 1.5-1.635 2.203-3.556 2.109-5.764-.095-2.207-.949-4.05-2.56-5.53-1.635-1.5-3.556-2.202-5.764-2.107z" fill="#999"/></svg>