<svg width="24" height="24" fill="none" xmlns="http://www.w3.org/2000/svg"><path d="M13.222 15.12h-2.29V17H9.626v-1.88H8.211v-1.08h1.415v-.936H8.211V12.03h1.415V7.047h3.67c1.067 0 1.913.271 2.537.813.624.543.937 1.276.937 2.202 0 .97-.301 1.72-.903 2.248-.597.525-1.447.789-2.55.793h-2.385v.937h2.29v1.08zm-2.29-3.09h2.365c.706 0 1.244-.166 1.613-.499.37-.332.554-.818.554-1.456 0-.579-.191-1.046-.574-1.401-.383-.36-.9-.542-1.552-.547h-2.406v3.903z" fill="#999"/><circle cx="12" cy="12" r="9" stroke="#999" stroke-width="2"/></svg>